<svg xmlns="http://www.w3.org/2000/svg" viewBox="0 0 760 440" width="760" height="440" font-family="Arial, Helvetica, sans-serif"><rect width="760" height="440" fill="#ffffff"/><text x="30" y="34" font-size="20" fill="#1a1a1a" text-anchor="start" font-weight="bold">Budget Timeline (ex VAT)</text><text x="30" y="54" font-size="12" fill="#5a6672" text-anchor="start">Working values from PROJECT-COST-BASELINE.md. Unresolved overlap shown separately, not hidden.</text><line x1="94" y1="350" x2="676" y2="350" stroke="#c9d1d9" stroke-width="1"/><text x="90" y="353" font-size="9" fill="#5a6672" text-anchor="end">R0k</text><line x1="94" y1="273.33333333333337" x2="676" y2="273.33333333333337" stroke="#c9d1d9" stroke-width="1"/><text x="90" y="276.33333333333337" font-size="9" fill="#5a6672" text-anchor="end">R30k</text><line x1="94" y1="196.66666666666669" x2="676" y2="196.66666666666669" stroke="#c9d1d9" stroke-width="1"/><text x="90" y="199.66666666666669" font-size="9" fill="#5a6672" text-anchor="end">R60k</text><line x1="94" y1="120" x2="676" y2="120" stroke="#c9d1d9" stroke-width="1"/><text x="90" y="123" font-size="9" fill="#5a6672" text-anchor="end">R90k</text><rect x="100" y="209.44444444444443" width="90" height="140.55555555555557" fill="#2f4a63" stroke="none" stroke-width="0"/><text x="145" y="282.72222222222223" font-size="9" fill="#fff" text-anchor="middle">R55k</text><rect x="100" y="119.99999999999999" width="90" height="89.44444444444444" fill="#c07a1e" stroke="none" stroke-width="0"/><text x="145" y="167.7222222222222" font-size="9" fill="#fff" text-anchor="middle">R35k</text><text x="145" y="366" font-size="11" fill="#1a1a1a" text-anchor="middle" font-weight="bold">Stage A</text><rect x="244" y="268.22222222222223" width="90" height="81.77777777777779" fill="#3f6690" stroke="none" stroke-width="0"/><text x="289" y="312.11111111111114" font-size="9" fill="#fff" text-anchor="middle">R32k</text><rect x="244" y="204.33333333333334" width="90" height="63.88888888888889" fill="#6b8fb0" stroke="none" stroke-width="0"/><text x="289" y="239.2777777777778" font-size="9" fill="#fff" text-anchor="middle">R25k</text><text x="289" y="366" font-size="11" fill="#1a1a1a" text-anchor="middle" font-weight="bold">Stage B M1</text><rect x="388" y="268.22222222222223" width="90" height="81.77777777777779" fill="#3f6690" stroke="none" stroke-width="0"/><text x="433" y="312.11111111111114" font-size="9" fill="#fff" text-anchor="middle">R32k</text><rect x="388" y="185.16666666666669" width="90" height="83.05555555555556" fill="#6b8fb0" stroke="none" stroke-width="0"/><text x="433" y="229.69444444444446" font-size="9" fill="#fff" text-anchor="middle">R33k</text><text x="433" y="366" font-size="11" fill="#1a1a1a" text-anchor="middle" font-weight="bold">Stage B M2</text><rect x="532" y="268.22222222222223" width="90" height="81.77777777777779" fill="#3f6690" stroke="none" stroke-width="0"/><text x="577" y="312.11111111111114" font-size="9" fill="#fff" text-anchor="middle">R32k</text><rect x="532" y="166" width="90" height="102.22222222222221" fill="#6b8fb0" stroke="none" stroke-width="0"/><text x="577" y="220.11111111111111" font-size="9" fill="#fff" text-anchor="middle">R40k</text><text x="577" y="366" font-size="11" fill="#1a1a1a" text-anchor="middle" font-weight="bold">Stage B M3</text><rect x="30" y="391" width="14" height="10" fill="#2f4a63" stroke="none" stroke-width="0"/><text x="50" y="400" font-size="10" fill="#1a1a1a" text-anchor="start">Setup fee</text><rect x="330" y="391" width="14" height="10" fill="#c07a1e" stroke="none" stroke-width="0"/><text x="350" y="400" font-size="10" fill="#1a1a1a" text-anchor="start">Web/landing — UNRESOLVED overlap</text><rect x="30" y="407" width="14" height="10" fill="#3f6690" stroke="none" stroke-width="0"/><text x="50" y="416" font-size="10" fill="#1a1a1a" text-anchor="start">Management fee</text><rect x="330" y="407" width="14" height="10" fill="#6b8fb0" stroke="none" stroke-width="0"/><text x="350" y="416" font-size="10" fill="#1a1a1a" text-anchor="start">Media spend</text><text x="30" y="432" font-size="9" fill="#5a6672" text-anchor="start">Programme total R233,500–R283,500 ex VAT (scenario range). Media paid to platforms. Platform build R436,000 ex VAT is separate.</text></svg>