<svg xmlns="http://www.w3.org/2000/svg" viewBox="0 0 928 588" width="928" height="588" font-family="Arial, Helvetica, sans-serif"><rect width="928" height="588" fill="#ffffff"/><text x="24" y="34" font-size="20" fill="#1a1a1a" text-anchor="start" font-weight="bold">Critical Path (Stage A)</text><text x="24" y="54" font-size="12" fill="#5a6672" text-anchor="start">Only zero-float activities. Any slip here moves the launch date. Durations in working days. Dark boxes = milestone gates.</text><rect x="24" y="84" width="152" height="50" fill="#fff" stroke="#b5322f" stroke-width="2.5" rx="3"/><text x="32" y="100" font-size="9.5" fill="#b5322f" text-anchor="start" font-weight="bold">A0  0d</text><text x="32" y="114" font-size="8.5" fill="#1a1a1a" text-anchor="start">Project authorisation</text><line x1="176" y1="109" x2="206" y2="109" stroke="#b5322f" stroke-width="2"/><rect x="206" y="84" width="152" height="50" fill="#fff" stroke="#b5322f" stroke-width="2.5" rx="3"/><text x="214" y="100" font-size="9.5" fill="#b5322f" text-anchor="start" font-weight="bold">A1  2d</text><text x="214" y="114" font-size="8.5" fill="#1a1a1a" text-anchor="start">Kick-off &amp; roles</text><text x="214" y="125" font-size="8.5" fill="#1a1a1a" text-anchor="start">confirmation</text><line x1="358" y1="109" x2="388" y2="109" stroke="#b5322f" stroke-width="2"/><rect x="388" y="84" width="152" height="50" fill="#fff" stroke="#b5322f" stroke-width="2.5" rx="3"/><text x="396" y="100" font-size="9.5" fill="#b5322f" text-anchor="start" font-weight="bold">A2  1d</text><text x="396" y="114" font-size="8.5" fill="#1a1a1a" text-anchor="start">Stakeholder &amp; sponsor</text><text x="396" y="125" font-size="8.5" fill="#1a1a1a" text-anchor="start">confirmation</text><line x1="540" y1="109" x2="570" y2="109" stroke="#b5322f" stroke-width="2"/><rect x="570" y="84" width="152" height="50" fill="#fff" stroke="#b5322f" stroke-width="2.5" rx="3"/><text x="578" y="100" font-size="9.5" fill="#b5322f" text-anchor="start" font-weight="bold">A5  6d</text><text x="578" y="114" font-size="8.5" fill="#1a1a1a" text-anchor="start">Discovery &amp; compliance</text><text x="578" y="125" font-size="8.5" fill="#1a1a1a" text-anchor="start">information collection</text><line x1="722" y1="109" x2="752" y2="109" stroke="#b5322f" stroke-width="2"/><rect x="752" y="84" width="152" height="50" fill="#fff" stroke="#b5322f" stroke-width="2.5" rx="3"/><text x="760" y="100" font-size="9.5" fill="#b5322f" text-anchor="start" font-weight="bold">A6  3d</text><text x="760" y="114" font-size="8.5" fill="#1a1a1a" text-anchor="start">Compliance questions</text><text x="760" y="125" font-size="8.5" fill="#1a1a1a" text-anchor="start">completed</text><line x1="828" y1="134" x2="828" y2="204" stroke="#b5322f" stroke-width="2"/><rect x="752" y="204" width="152" height="50" fill="#fff" stroke="#b5322f" stroke-width="2.5" rx="3"/><text x="760" y="220" font-size="9.5" fill="#b5322f" text-anchor="start" font-weight="bold">A7  6d</text><text x="760" y="234" font-size="8.5" fill="#1a1a1a" text-anchor="start">Approved claims list</text><line x1="752" y1="229" x2="722" y2="229" stroke="#b5322f" stroke-width="2"/><rect x="570" y="204" width="152" height="50" fill="#fff" stroke="#b5322f" stroke-width="2.5" rx="3"/><text x="578" y="220" font-size="9.5" fill="#b5322f" text-anchor="start" font-weight="bold">A9  3d</text><text x="578" y="234" font-size="8.5" fill="#1a1a1a" text-anchor="start">Required disclaimers</text><line x1="570" y1="229" x2="540" y2="229" stroke="#b5322f" stroke-width="2"/><rect x="388" y="204" width="152" height="50" fill="#1f2d3d" stroke="none" stroke-width="0" rx="3"/><text x="396" y="220" font-size="9.5" fill="#fff" text-anchor="start" font-weight="bold">◆ M1</text><text x="396" y="234" font-size="8.5" fill="#fff" text-anchor="start">Compliance &amp; claims</text><text x="396" y="245" font-size="8.5" fill="#fff" text-anchor="start">approved</text><line x1="388" y1="229" x2="358" y2="229" stroke="#b5322f" stroke-width="2"/><rect x="206" y="204" width="152" height="50" fill="#fff" stroke="#b5322f" stroke-width="2.5" rx="3"/><text x="214" y="220" font-size="9.5" fill="#b5322f" text-anchor="start" font-weight="bold">A18  6d</text><text x="214" y="234" font-size="8.5" fill="#1a1a1a" text-anchor="start">Landing page copy &amp;</text><text x="214" y="245" font-size="8.5" fill="#1a1a1a" text-anchor="start">creative</text><line x1="206" y1="229" x2="176" y2="229" stroke="#b5322f" stroke-width="2"/><rect x="24" y="204" width="152" height="50" fill="#fff" stroke="#b5322f" stroke-width="2.5" rx="3"/><text x="32" y="220" font-size="9.5" fill="#b5322f" text-anchor="start" font-weight="bold">A19  11d</text><text x="32" y="234" font-size="8.5" fill="#1a1a1a" text-anchor="start">Landing page build</text><text x="32" y="245" font-size="8.5" fill="#1a1a1a" text-anchor="start">(interim/platform)</text><line x1="100" y1="254" x2="100" y2="324" stroke="#b5322f" stroke-width="2"/><rect x="24" y="324" width="152" height="50" fill="#fff" stroke="#b5322f" stroke-width="2.5" rx="3"/><text x="32" y="340" font-size="9.5" fill="#b5322f" text-anchor="start" font-weight="bold">A21  2d</text><text x="32" y="354" font-size="8.5" fill="#1a1a1a" text-anchor="start">Landing page QA &amp; approval</text><line x1="176" y1="349" x2="206" y2="349" stroke="#b5322f" stroke-width="2"/><rect x="206" y="324" width="152" height="50" fill="#1f2d3d" stroke="none" stroke-width="0" rx="3"/><text x="214" y="340" font-size="9.5" fill="#fff" text-anchor="start" font-weight="bold">◆ M3</text><text x="214" y="354" font-size="8.5" fill="#fff" text-anchor="start">Landing pages approved</text><line x1="358" y1="349" x2="388" y2="349" stroke="#b5322f" stroke-width="2"/><rect x="388" y="324" width="152" height="50" fill="#fff" stroke="#b5322f" stroke-width="2.5" rx="3"/><text x="396" y="340" font-size="9.5" fill="#b5322f" text-anchor="start" font-weight="bold">A26  2d</text><text x="396" y="354" font-size="8.5" fill="#1a1a1a" text-anchor="start">Tracking end-to-end test</text><line x1="540" y1="349" x2="570" y2="349" stroke="#b5322f" stroke-width="2"/><rect x="570" y="324" width="152" height="50" fill="#1f2d3d" stroke="none" stroke-width="0" rx="3"/><text x="578" y="340" font-size="9.5" fill="#fff" text-anchor="start" font-weight="bold">◆ M4</text><text x="578" y="354" font-size="8.5" fill="#fff" text-anchor="start">Tracking approved</text><line x1="722" y1="349" x2="752" y2="349" stroke="#b5322f" stroke-width="2"/><rect x="752" y="324" width="152" height="50" fill="#fff" stroke="#b5322f" stroke-width="2.5" rx="3"/><text x="760" y="340" font-size="9.5" fill="#b5322f" text-anchor="start" font-weight="bold">A33  3d</text><text x="760" y="354" font-size="8.5" fill="#1a1a1a" text-anchor="start">Campaign build</text><line x1="828" y1="374" x2="828" y2="444" stroke="#b5322f" stroke-width="2"/><rect x="752" y="444" width="152" height="50" fill="#1f2d3d" stroke="none" stroke-width="0" rx="3"/><text x="760" y="460" font-size="9.5" fill="#fff" text-anchor="start" font-weight="bold">◆ M6</text><text x="760" y="474" font-size="8.5" fill="#fff" text-anchor="start">Campaigns approved</text><line x1="752" y1="469" x2="722" y2="469" stroke="#b5322f" stroke-width="2"/><rect x="570" y="444" width="152" height="50" fill="#fff" stroke="#b5322f" stroke-width="2.5" rx="3"/><text x="578" y="460" font-size="9.5" fill="#b5322f" text-anchor="start" font-weight="bold">A37  3d</text><text x="578" y="474" font-size="8.5" fill="#1a1a1a" text-anchor="start">Pre-launch testing</text><text x="578" y="485" font-size="8.5" fill="#1a1a1a" text-anchor="start">(form/tracking/technical)</text><line x1="570" y1="469" x2="540" y2="469" stroke="#b5322f" stroke-width="2"/><rect x="388" y="444" width="152" height="50" fill="#fff" stroke="#b5322f" stroke-width="2.5" rx="3"/><text x="396" y="460" font-size="9.5" fill="#b5322f" text-anchor="start" font-weight="bold">A38  1d</text><text x="396" y="474" font-size="8.5" fill="#1a1a1a" text-anchor="start">Launch checklist sign-off</text><line x1="388" y1="469" x2="358" y2="469" stroke="#b5322f" stroke-width="2"/><rect x="206" y="444" width="152" height="50" fill="#1f2d3d" stroke="none" stroke-width="0" rx="3"/><text x="214" y="460" font-size="9.5" fill="#fff" text-anchor="start" font-weight="bold">◆ M7</text><text x="214" y="474" font-size="8.5" fill="#fff" text-anchor="start">Controlled Launch</text><text x="24" y="566" font-size="11" fill="#b5322f" text-anchor="start" font-weight="bold">→ then STAGE B (from launch): Day 0 → Day 7 → Day 14 → Day 30 → Day 45 → Day 60 → Day 75 → Day 90 scale decision (true 90 live days).</text></svg>