<svg xmlns="http://www.w3.org/2000/svg" viewBox="0 0 926 524" width="926" height="524" font-family="Arial, Helvetica, sans-serif"><rect width="926" height="524" fill="#ffffff"/><text x="24" y="34" font-size="20" fill="#1a1a1a" text-anchor="start" font-weight="bold">Critical Path (Stage A)</text><text x="24" y="54" font-size="12" fill="#5a6672" text-anchor="start">Only zero-float activities. Any slip here moves the launch date. Durations in working days.</text><rect x="24" y="78" width="118" height="44" fill="#fff" stroke="#b5322f" stroke-width="2.5" rx="3"/><text x="30" y="93" font-size="9" fill="#b5322f" text-anchor="start" font-weight="bold">A0  0d</text><text x="30" y="108" font-size="8.5" fill="#1a1a1a" text-anchor="start">Project authorisatio</text><line x1="142" y1="100" x2="176" y2="100" stroke="#b5322f" stroke-width="2"/><rect x="176" y="78" width="118" height="44" fill="#fff" stroke="#b5322f" stroke-width="2.5" rx="3"/><text x="182" y="93" font-size="9" fill="#b5322f" text-anchor="start" font-weight="bold">A1  2d</text><text x="182" y="108" font-size="8.5" fill="#1a1a1a" text-anchor="start">Kick-off &amp; roles con</text><line x1="294" y1="100" x2="328" y2="100" stroke="#b5322f" stroke-width="2"/><rect x="328" y="78" width="118" height="44" fill="#fff" stroke="#b5322f" stroke-width="2.5" rx="3"/><text x="334" y="93" font-size="9" fill="#b5322f" text-anchor="start" font-weight="bold">A2  1d</text><text x="334" y="108" font-size="8.5" fill="#1a1a1a" text-anchor="start">Stakeholder &amp; sponso</text><line x1="446" y1="100" x2="480" y2="100" stroke="#b5322f" stroke-width="2"/><rect x="480" y="78" width="118" height="44" fill="#fff" stroke="#b5322f" stroke-width="2.5" rx="3"/><text x="486" y="93" font-size="9" fill="#b5322f" text-anchor="start" font-weight="bold">A5  6d</text><text x="486" y="108" font-size="8.5" fill="#1a1a1a" text-anchor="start">Discovery &amp; complian</text><line x1="598" y1="100" x2="632" y2="100" stroke="#b5322f" stroke-width="2"/><rect x="632" y="78" width="118" height="44" fill="#fff" stroke="#b5322f" stroke-width="2.5" rx="3"/><text x="638" y="93" font-size="9" fill="#b5322f" text-anchor="start" font-weight="bold">A6  3d</text><text x="638" y="108" font-size="8.5" fill="#1a1a1a" text-anchor="start">Compliance questions</text><line x1="750" y1="100" x2="784" y2="100" stroke="#b5322f" stroke-width="2"/><rect x="784" y="78" width="118" height="44" fill="#fff" stroke="#b5322f" stroke-width="2.5" rx="3"/><text x="790" y="93" font-size="9" fill="#b5322f" text-anchor="start" font-weight="bold">A7  6d</text><text x="790" y="108" font-size="8.5" fill="#1a1a1a" text-anchor="start">Approved claims list</text><line x1="843" y1="122" x2="843" y2="182" stroke="#b5322f" stroke-width="2"/><rect x="784" y="182" width="118" height="44" fill="#fff" stroke="#b5322f" stroke-width="2.5" rx="3"/><text x="790" y="197" font-size="9" fill="#b5322f" text-anchor="start" font-weight="bold">A9  3d</text><text x="790" y="212" font-size="8.5" fill="#1a1a1a" text-anchor="start">Required disclaimers</text><line x1="784" y1="204" x2="750" y2="204" stroke="#b5322f" stroke-width="2"/><polygon points="691,184 711,204 691,224 671,204" fill="#1f2d3d" stroke="#fff" stroke-width="1"/><text x="691" y="202" font-size="8" fill="#fff" text-anchor="middle" font-weight="bold">Compliance &amp; cla</text><text x="691" y="213" font-size="7.5" fill="#fff" text-anchor="middle">gate</text><line x1="632" y1="204" x2="598" y2="204" stroke="#b5322f" stroke-width="2"/><rect x="480" y="182" width="118" height="44" fill="#fff" stroke="#b5322f" stroke-width="2.5" rx="3"/><text x="486" y="197" font-size="9" fill="#b5322f" text-anchor="start" font-weight="bold">A18  6d</text><text x="486" y="212" font-size="8.5" fill="#1a1a1a" text-anchor="start">Landing page copy &amp; </text><line x1="480" y1="204" x2="446" y2="204" stroke="#b5322f" stroke-width="2"/><rect x="328" y="182" width="118" height="44" fill="#fff" stroke="#b5322f" stroke-width="2.5" rx="3"/><text x="334" y="197" font-size="9" fill="#b5322f" text-anchor="start" font-weight="bold">A19  11d</text><text x="334" y="212" font-size="8.5" fill="#1a1a1a" text-anchor="start">Landing page build (</text><line x1="328" y1="204" x2="294" y2="204" stroke="#b5322f" stroke-width="2"/><rect x="176" y="182" width="118" height="44" fill="#fff" stroke="#b5322f" stroke-width="2.5" rx="3"/><text x="182" y="197" font-size="9" fill="#b5322f" text-anchor="start" font-weight="bold">A21  2d</text><text x="182" y="212" font-size="8.5" fill="#1a1a1a" text-anchor="start">Landing page QA &amp; ap</text><line x1="176" y1="204" x2="142" y2="204" stroke="#b5322f" stroke-width="2"/><polygon points="83,184 103,204 83,224 63,204" fill="#1f2d3d" stroke="#fff" stroke-width="1"/><text x="83" y="202" font-size="8" fill="#fff" text-anchor="middle" font-weight="bold">Landing pages ap</text><text x="83" y="213" font-size="7.5" fill="#fff" text-anchor="middle">gate</text><line x1="83" y1="226" x2="83" y2="286" stroke="#b5322f" stroke-width="2"/><rect x="24" y="286" width="118" height="44" fill="#fff" stroke="#b5322f" stroke-width="2.5" rx="3"/><text x="30" y="301" font-size="9" fill="#b5322f" text-anchor="start" font-weight="bold">A26  2d</text><text x="30" y="316" font-size="8.5" fill="#1a1a1a" text-anchor="start">Tracking end-to-end </text><line x1="142" y1="308" x2="176" y2="308" stroke="#b5322f" stroke-width="2"/><polygon points="235,288 255,308 235,328 215,308" fill="#1f2d3d" stroke="#fff" stroke-width="1"/><text x="235" y="306" font-size="8" fill="#fff" text-anchor="middle" font-weight="bold">Tracking approve</text><text x="235" y="317" font-size="7.5" fill="#fff" text-anchor="middle">gate</text><line x1="294" y1="308" x2="328" y2="308" stroke="#b5322f" stroke-width="2"/><rect x="328" y="286" width="118" height="44" fill="#fff" stroke="#b5322f" stroke-width="2.5" rx="3"/><text x="334" y="301" font-size="9" fill="#b5322f" text-anchor="start" font-weight="bold">A33  3d</text><text x="334" y="316" font-size="8.5" fill="#1a1a1a" text-anchor="start">Campaign build</text><line x1="446" y1="308" x2="480" y2="308" stroke="#b5322f" stroke-width="2"/><polygon points="539,288 559,308 539,328 519,308" fill="#1f2d3d" stroke="#fff" stroke-width="1"/><text x="539" y="306" font-size="8" fill="#fff" text-anchor="middle" font-weight="bold">Campaigns approv</text><text x="539" y="317" font-size="7.5" fill="#fff" text-anchor="middle">gate</text><line x1="598" y1="308" x2="632" y2="308" stroke="#b5322f" stroke-width="2"/><rect x="632" y="286" width="118" height="44" fill="#fff" stroke="#b5322f" stroke-width="2.5" rx="3"/><text x="638" y="301" font-size="9" fill="#b5322f" text-anchor="start" font-weight="bold">A37  3d</text><text x="638" y="316" font-size="8.5" fill="#1a1a1a" text-anchor="start">Pre-launch testing (</text><line x1="750" y1="308" x2="784" y2="308" stroke="#b5322f" stroke-width="2"/><rect x="784" y="286" width="118" height="44" fill="#fff" stroke="#b5322f" stroke-width="2.5" rx="3"/><text x="790" y="301" font-size="9" fill="#b5322f" text-anchor="start" font-weight="bold">A38  1d</text><text x="790" y="316" font-size="8.5" fill="#1a1a1a" text-anchor="start">Launch checklist sig</text><line x1="843" y1="330" x2="843" y2="390" stroke="#b5322f" stroke-width="2"/><polygon points="843,392 863,412 843,432 823,412" fill="#1f2d3d" stroke="#fff" stroke-width="1"/><text x="843" y="410" font-size="8" fill="#fff" text-anchor="middle" font-weight="bold">Controlled Launc</text><text x="843" y="421" font-size="7.5" fill="#fff" text-anchor="middle">gate</text><text x="24" y="500" font-size="11" fill="#b5322f" text-anchor="start" font-weight="bold">→ then STAGE B (from launch): Day 0 → Day 7 → Day 14 → Day 30 → Day 45 → Day 60 → Day 75 → Day 90 scale decision (true 90 live days).</text></svg>