<svg xmlns="http://www.w3.org/2000/svg" viewBox="0 0 1480 360" width="1480" height="360" font-family="Arial, Helvetica, sans-serif"><rect width="1480" height="360" fill="#ffffff"/><text x="24" y="34" font-size="20" fill="#1a1a1a" text-anchor="start" font-weight="bold">Programme Gantt — Overview</text><text x="24" y="56" font-size="12" fill="#5a6672" text-anchor="start">Two-stage model. Stage A preparation (Day 0–69) then true 90-day live campaign (Day 69–159). Calculated by CPM.</text><line x1="184" y1="102" x2="184" y2="290" stroke="#c9d1d9" stroke-width="1"/><text x="184" y="96" font-size="9" fill="#5a6672" text-anchor="middle">D0</text><line x1="240" y1="102" x2="240" y2="290" stroke="#c9d1d9" stroke-width="1"/><line x1="296" y1="102" x2="296" y2="290" stroke="#c9d1d9" stroke-width="1"/><text x="296" y="96" font-size="9" fill="#5a6672" text-anchor="middle">D14</text><line x1="352" y1="102" x2="352" y2="290" stroke="#c9d1d9" stroke-width="1"/><line x1="408" y1="102" x2="408" y2="290" stroke="#c9d1d9" stroke-width="1"/><text x="408" y="96" font-size="9" fill="#5a6672" text-anchor="middle">D28</text><line x1="464" y1="102" x2="464" y2="290" stroke="#c9d1d9" stroke-width="1"/><line x1="520" y1="102" x2="520" y2="290" stroke="#c9d1d9" stroke-width="1"/><text x="520" y="96" font-size="9" fill="#5a6672" text-anchor="middle">D42</text><line x1="576" y1="102" x2="576" y2="290" stroke="#c9d1d9" stroke-width="1"/><line x1="632" y1="102" x2="632" y2="290" stroke="#c9d1d9" stroke-width="1"/><text x="632" y="96" font-size="9" fill="#5a6672" text-anchor="middle">D56</text><line x1="688" y1="102" x2="688" y2="290" stroke="#c9d1d9" stroke-width="1"/><line x1="744" y1="102" x2="744" y2="290" stroke="#c9d1d9" stroke-width="1"/><text x="744" y="96" font-size="9" fill="#5a6672" text-anchor="middle">D70</text><line x1="800" y1="102" x2="800" y2="290" stroke="#c9d1d9" stroke-width="1"/><line x1="856" y1="102" x2="856" y2="290" stroke="#c9d1d9" stroke-width="1"/><text x="856" y="96" font-size="9" fill="#5a6672" text-anchor="middle">D84</text><line x1="912" y1="102" x2="912" y2="290" stroke="#c9d1d9" stroke-width="1"/><line x1="968" y1="102" x2="968" y2="290" stroke="#c9d1d9" stroke-width="1"/><text x="968" y="96" font-size="9" fill="#5a6672" text-anchor="middle">D98</text><line x1="1024" y1="102" x2="1024" y2="290" stroke="#c9d1d9" stroke-width="1"/><line x1="1080" y1="102" x2="1080" y2="290" stroke="#c9d1d9" stroke-width="1"/><text x="1080" y="96" font-size="9" fill="#5a6672" text-anchor="middle">D112</text><line x1="1136" y1="102" x2="1136" y2="290" stroke="#c9d1d9" stroke-width="1"/><line x1="1192" y1="102" x2="1192" y2="290" stroke="#c9d1d9" stroke-width="1"/><text x="1192" y="96" font-size="9" fill="#5a6672" text-anchor="middle">D126</text><line x1="1248" y1="102" x2="1248" y2="290" stroke="#c9d1d9" stroke-width="1"/><line x1="1304" y1="102" x2="1304" y2="290" stroke="#c9d1d9" stroke-width="1"/><text x="1304" y="96" font-size="9" fill="#5a6672" text-anchor="middle">D140</text><line x1="1360" y1="102" x2="1360" y2="290" stroke="#c9d1d9" stroke-width="1"/><line x1="1416" y1="102" x2="1416" y2="290" stroke="#c9d1d9" stroke-width="1"/><text x="1416" y="96" font-size="9" fill="#5a6672" text-anchor="middle">D154</text><text x="24" y="134" font-size="12" fill="#1a1a1a" text-anchor="start" font-weight="bold">Stage A — Preparation</text><rect x="184" y="122" width="552" height="20" fill="#3f6690" stroke="none" stroke-width="0" rx="3"/><text x="460" y="136" font-size="10" fill="#fff" text-anchor="middle" font-weight="bold">49 working days (~10 wks)</text><text x="24" y="170" font-size="12" fill="#1a1a1a" text-anchor="start" font-weight="bold">Stage B — Live campaign</text><rect x="736" y="158" width="720" height="20" fill="#b5322f" stroke="none" stroke-width="0" rx="3"/><text x="1096" y="172" font-size="10" fill="#fff" text-anchor="middle" font-weight="bold">90 live days</text><line x1="736" y1="116" x2="736" y2="290" stroke="#1f2d3d" stroke-width="2"/><text x="736" y="304" font-size="9" fill="#1f2d3d" text-anchor="middle" font-weight="bold">LAUNCH (D69)</text><text x="24" y="210" font-size="12" fill="#1a1a1a" text-anchor="start" font-weight="bold">Milestones</text><polygon points="384,200 390,206 384,212 378,206" fill="#1f2d3d" stroke="#fff" stroke-width="1"/><text x="384" y="228" font-size="8.5" fill="#1a1a1a" text-anchor="middle" font-weight="bold">M2</text><text x="384" y="239" font-size="8" fill="#5a6672" text-anchor="middle">D25</text><polygon points="416,200 422,206 416,212 410,206" fill="#1f2d3d" stroke="#fff" stroke-width="1"/><text x="416" y="228" font-size="8.5" fill="#1a1a1a" text-anchor="middle" font-weight="bold">M1</text><text x="416" y="239" font-size="8" fill="#5a6672" text-anchor="middle">D29</text><polygon points="472,200 478,206 472,212 466,206" fill="#1f2d3d" stroke="#fff" stroke-width="1"/><text x="472" y="228" font-size="8.5" fill="#1a1a1a" text-anchor="middle" font-weight="bold">M5</text><text x="472" y="239" font-size="8" fill="#5a6672" text-anchor="middle">D36</text><polygon points="632,200 638,206 632,212 626,206" fill="#1f2d3d" stroke="#fff" stroke-width="1"/><text x="632" y="228" font-size="8.5" fill="#1a1a1a" text-anchor="middle" font-weight="bold">M3</text><text x="632" y="239" font-size="8" fill="#5a6672" text-anchor="middle">D56</text><polygon points="656,200 662,206 656,212 650,206" fill="#1f2d3d" stroke="#fff" stroke-width="1"/><text x="656" y="228" font-size="8.5" fill="#1a1a1a" text-anchor="middle" font-weight="bold">M4</text><text x="656" y="239" font-size="8" fill="#5a6672" text-anchor="middle">D59</text><polygon points="688,200 694,206 688,212 682,206" fill="#1f2d3d" stroke="#fff" stroke-width="1"/><text x="688" y="228" font-size="8.5" fill="#1a1a1a" text-anchor="middle" font-weight="bold">M6</text><text x="688" y="239" font-size="8" fill="#5a6672" text-anchor="middle">D63</text><polygon points="736,200 742,206 736,212 730,206" fill="#1f2d3d" stroke="#fff" stroke-width="1"/><text x="736" y="228" font-size="8.5" fill="#1a1a1a" text-anchor="middle" font-weight="bold">LAUNCH</text><text x="736" y="239" font-size="8" fill="#5a6672" text-anchor="middle">D69</text><polygon points="976,200 982,206 976,212 970,206" fill="#1f2d3d" stroke="#fff" stroke-width="1"/><text x="976" y="228" font-size="8.5" fill="#1a1a1a" text-anchor="middle" font-weight="bold">D30</text><text x="976" y="239" font-size="8" fill="#5a6672" text-anchor="middle">D99</text><polygon points="1216,200 1222,206 1216,212 1210,206" fill="#1f2d3d" stroke="#fff" stroke-width="1"/><text x="1216" y="228" font-size="8.5" fill="#1a1a1a" text-anchor="middle" font-weight="bold">D60</text><text x="1216" y="239" font-size="8" fill="#5a6672" text-anchor="middle">D129</text><polygon points="1456,200 1462,206 1456,212 1450,206" fill="#1f2d3d" stroke="#fff" stroke-width="1"/><text x="1456" y="228" font-size="8.5" fill="#1a1a1a" text-anchor="middle" font-weight="bold">D90</text><text x="1456" y="239" font-size="8" fill="#5a6672" text-anchor="middle">D159</text><line x1="976" y1="116" x2="976" y2="290" stroke="#b5322f" stroke-width="1.2" stroke-dasharray="4 3"/><line x1="1216" y1="116" x2="1216" y2="290" stroke="#b5322f" stroke-width="1.2" stroke-dasharray="4 3"/><line x1="1456" y1="116" x2="1456" y2="290" stroke="#b5322f" stroke-width="1.2" stroke-dasharray="4 3"/></svg>