<svg xmlns="http://www.w3.org/2000/svg" viewBox="0 0 1038 607" width="1038" height="607" font-family="Arial, Helvetica, sans-serif"><rect width="1038" height="607" fill="#ffffff"/><text x="24" y="34" font-size="20" fill="#1a1a1a" text-anchor="start" font-weight="bold">Gantt — Stage B (90-Day Live Campaign)</text><text x="24" y="56" font-size="12" fill="#5a6672" text-anchor="start">Calendar days from authorisation. Launch = Day 69 (live Day 0); Day 90 decision = calendar Day 159.</text><line x1="384" y1="88" x2="384" y2="537" stroke="#c9d1d9" stroke-width="1"/><text x="384" y="82" font-size="9" fill="#5a6672" text-anchor="middle">D69</text><line x1="433" y1="88" x2="433" y2="537" stroke="#c9d1d9" stroke-width="1"/><text x="433" y="82" font-size="9" fill="#5a6672" text-anchor="middle">D76</text><line x1="482" y1="88" x2="482" y2="537" stroke="#c9d1d9" stroke-width="1"/><text x="482" y="82" font-size="9" fill="#5a6672" text-anchor="middle">D83</text><line x1="531" y1="88" x2="531" y2="537" stroke="#c9d1d9" stroke-width="1"/><text x="531" y="82" font-size="9" fill="#5a6672" text-anchor="middle">D90</text><line x1="580" y1="88" x2="580" y2="537" stroke="#c9d1d9" stroke-width="1"/><text x="580" y="82" font-size="9" fill="#5a6672" text-anchor="middle">D97</text><line x1="629" y1="88" x2="629" y2="537" stroke="#c9d1d9" stroke-width="1"/><text x="629" y="82" font-size="9" fill="#5a6672" text-anchor="middle">D104</text><line x1="678" y1="88" x2="678" y2="537" stroke="#c9d1d9" stroke-width="1"/><text x="678" y="82" font-size="9" fill="#5a6672" text-anchor="middle">D111</text><line x1="727" y1="88" x2="727" y2="537" stroke="#c9d1d9" stroke-width="1"/><text x="727" y="82" font-size="9" fill="#5a6672" text-anchor="middle">D118</text><line x1="776" y1="88" x2="776" y2="537" stroke="#c9d1d9" stroke-width="1"/><text x="776" y="82" font-size="9" fill="#5a6672" text-anchor="middle">D125</text><line x1="825" y1="88" x2="825" y2="537" stroke="#c9d1d9" stroke-width="1"/><text x="825" y="82" font-size="9" fill="#5a6672" text-anchor="middle">D132</text><line x1="874" y1="88" x2="874" y2="537" stroke="#c9d1d9" stroke-width="1"/><text x="874" y="82" font-size="9" fill="#5a6672" text-anchor="middle">D139</text><line x1="923" y1="88" x2="923" y2="537" stroke="#c9d1d9" stroke-width="1"/><text x="923" y="82" font-size="9" fill="#5a6672" text-anchor="middle">D146</text><line x1="972" y1="88" x2="972" y2="537" stroke="#c9d1d9" stroke-width="1"/><text x="972" y="82" font-size="9" fill="#5a6672" text-anchor="middle">D153</text><line x1="594" y1="88" x2="594" y2="537" stroke="#b5322f" stroke-width="1.5" stroke-dasharray="4 3"/><line x1="804" y1="88" x2="804" y2="537" stroke="#b5322f" stroke-width="1.5" stroke-dasharray="4 3"/><line x1="1014" y1="88" x2="1014" y2="537" stroke="#b5322f" stroke-width="1.5" stroke-dasharray="4 3"/><line x1="24" y1="117" x2="1014" y2="117" stroke="#eef0f2" stroke-width="1"/><text x="24" y="110" font-size="9" fill="#5a6672" text-anchor="start">10.0  B0</text><text x="88" y="110" font-size="10.5" fill="#1a1a1a" text-anchor="start">Launch (Day 0)</text><polygon points="384,100.5 390,106.5 384,112.5 378,106.5" fill="#1f2d3d" stroke="#fff" stroke-width="1"/><polygon points="384,103.5 387,106.5 384,109.5 381,106.5" fill="#fff" stroke="none" stroke-width="1"/><line x1="24" y1="138" x2="1014" y2="138" stroke="#eef0f2" stroke-width="1"/><text x="24" y="131" font-size="9" fill="#5a6672" text-anchor="start">10.1  B1</text><text x="88" y="131" font-size="10.5" fill="#1a1a1a" text-anchor="start">Live running &amp; initial technical monitoring </text><rect x="384" y="121" width="49" height="12" fill="#b5322f" stroke="none" stroke-width="0" rx="2"/><text x="437" y="131" font-size="8" fill="#b5322f" text-anchor="start" font-weight="bold">CRIT</text><line x1="24" y1="159" x2="1014" y2="159" stroke="#eef0f2" stroke-width="1"/><text x="24" y="152" font-size="9" fill="#5a6672" text-anchor="start">11.1  B8</text><text x="88" y="152" font-size="10.5" fill="#1a1a1a" text-anchor="start">Search-term &amp; negative optimisation (continu</text><rect x="384" y="142" width="630" height="12" fill="#b5322f" stroke="none" stroke-width="0" rx="2"/><text x="1018" y="152" font-size="8" fill="#b5322f" text-anchor="start" font-weight="bold">CRIT</text><line x1="24" y1="180" x2="1014" y2="180" stroke="#eef0f2" stroke-width="1"/><text x="24" y="173" font-size="9" fill="#5a6672" text-anchor="start">11.2  B9</text><text x="88" y="173" font-size="10.5" fill="#1a1a1a" text-anchor="start">Landing page &amp; ad-copy optimisation</text><rect x="384" y="163" width="630" height="12" fill="#b5322f" stroke="none" stroke-width="0" rx="2"/><text x="1018" y="173" font-size="8" fill="#b5322f" text-anchor="start" font-weight="bold">CRIT</text><line x1="24" y1="201" x2="1014" y2="201" stroke="#eef0f2" stroke-width="1"/><text x="24" y="194" font-size="9" fill="#5a6672" text-anchor="start">11.3  B10</text><text x="88" y="194" font-size="10.5" fill="#1a1a1a" text-anchor="start">SEO content execution</text><rect x="384" y="184" width="630" height="12" fill="#b5322f" stroke="none" stroke-width="0" rx="2"/><text x="1018" y="194" font-size="8" fill="#b5322f" text-anchor="start" font-weight="bold">CRIT</text><line x1="24" y1="222" x2="1014" y2="222" stroke="#eef0f2" stroke-width="1"/><text x="24" y="215" font-size="9" fill="#5a6672" text-anchor="start">11.4  B11</text><text x="88" y="215" font-size="10.5" fill="#1a1a1a" text-anchor="start">Partner outreach &amp; LinkedIn B2B</text><rect x="384" y="205" width="630" height="12" fill="#b5322f" stroke="none" stroke-width="0" rx="2"/><text x="1018" y="215" font-size="8" fill="#b5322f" text-anchor="start" font-weight="bold">CRIT</text><line x1="24" y1="243" x2="1014" y2="243" stroke="#eef0f2" stroke-width="1"/><text x="24" y="236" font-size="9" fill="#5a6672" text-anchor="start">11.5  B12</text><text x="88" y="236" font-size="10.5" fill="#1a1a1a" text-anchor="start">Email &amp; WhatsApp nurture</text><rect x="384" y="226" width="630" height="12" fill="#b5322f" stroke="none" stroke-width="0" rx="2"/><text x="1018" y="236" font-size="8" fill="#b5322f" text-anchor="start" font-weight="bold">CRIT</text><line x1="24" y1="264" x2="1014" y2="264" stroke="#eef0f2" stroke-width="1"/><text x="24" y="257" font-size="9" fill="#5a6672" text-anchor="start">10.7  MB7</text><text x="88" y="257" font-size="10.5" fill="#1a1a1a" text-anchor="start">Day 7 technical &amp; search-term review</text><polygon points="433,247.5 439,253.5 433,259.5 427,253.5" fill="#1f2d3d" stroke="#fff" stroke-width="1"/><polygon points="433,250.5 436,253.5 433,256.5 430,253.5" fill="#fff" stroke="none" stroke-width="1"/><line x1="24" y1="285" x2="1014" y2="285" stroke="#eef0f2" stroke-width="1"/><text x="24" y="278" font-size="9" fill="#5a6672" text-anchor="start">10.2  B2</text><text x="88" y="278" font-size="10.5" fill="#1a1a1a" text-anchor="start">Live running to Day 14</text><rect x="433" y="268" width="49" height="12" fill="#b5322f" stroke="none" stroke-width="0" rx="2"/><text x="486" y="278" font-size="8" fill="#b5322f" text-anchor="start" font-weight="bold">CRIT</text><line x1="24" y1="306" x2="1014" y2="306" stroke="#eef0f2" stroke-width="1"/><text x="24" y="299" font-size="9" fill="#5a6672" text-anchor="start">10.14  MB14</text><text x="88" y="299" font-size="10.5" fill="#1a1a1a" text-anchor="start">Day 14 lead-quality review</text><polygon points="482,289.5 488,295.5 482,301.5 476,295.5" fill="#1f2d3d" stroke="#fff" stroke-width="1"/><polygon points="482,292.5 485,295.5 482,298.5 479,295.5" fill="#fff" stroke="none" stroke-width="1"/><line x1="24" y1="327" x2="1014" y2="327" stroke="#eef0f2" stroke-width="1"/><text x="24" y="320" font-size="9" fill="#5a6672" text-anchor="start">10.3  B3</text><text x="88" y="320" font-size="10.5" fill="#1a1a1a" text-anchor="start">Live running to Day 30</text><rect x="482" y="310" width="112" height="12" fill="#b5322f" stroke="none" stroke-width="0" rx="2"/><text x="598" y="320" font-size="8" fill="#b5322f" text-anchor="start" font-weight="bold">CRIT</text><line x1="24" y1="348" x2="1014" y2="348" stroke="#eef0f2" stroke-width="1"/><text x="24" y="341" font-size="9" fill="#5a6672" text-anchor="start">10.30  MB30</text><text x="88" y="341" font-size="10.5" fill="#1a1a1a" text-anchor="start">Day 30 performance review</text><polygon points="594,331.5 600,337.5 594,343.5 588,337.5" fill="#1f2d3d" stroke="#fff" stroke-width="1"/><polygon points="594,334.5 597,337.5 594,340.5 591,337.5" fill="#fff" stroke="none" stroke-width="1"/><line x1="24" y1="369" x2="1014" y2="369" stroke="#eef0f2" stroke-width="1"/><text x="24" y="362" font-size="9" fill="#5a6672" text-anchor="start">10.4  B4</text><text x="88" y="362" font-size="10.5" fill="#1a1a1a" text-anchor="start">Live running to Day 45</text><rect x="594" y="352" width="105" height="12" fill="#b5322f" stroke="none" stroke-width="0" rx="2"/><text x="703" y="362" font-size="8" fill="#b5322f" text-anchor="start" font-weight="bold">CRIT</text><line x1="24" y1="390" x2="1014" y2="390" stroke="#eef0f2" stroke-width="1"/><text x="24" y="383" font-size="9" fill="#5a6672" text-anchor="start">11.6  B13</text><text x="88" y="383" font-size="10.5" fill="#1a1a1a" text-anchor="start">Meta retargeting activation (traffic-gated)</text><rect x="594" y="373" width="420" height="12" fill="#b5322f" stroke="none" stroke-width="0" rx="2"/><text x="1018" y="383" font-size="8" fill="#b5322f" text-anchor="start" font-weight="bold">CRIT</text><line x1="24" y1="411" x2="1014" y2="411" stroke="#eef0f2" stroke-width="1"/><text x="24" y="404" font-size="9" fill="#5a6672" text-anchor="start">10.45  MB45</text><text x="88" y="404" font-size="10.5" fill="#1a1a1a" text-anchor="start">Day 45 optimisation checkpoint</text><polygon points="699,394.5 705,400.5 699,406.5 693,400.5" fill="#1f2d3d" stroke="#fff" stroke-width="1"/><polygon points="699,397.5 702,400.5 699,403.5 696,400.5" fill="#fff" stroke="none" stroke-width="1"/><line x1="24" y1="432" x2="1014" y2="432" stroke="#eef0f2" stroke-width="1"/><text x="24" y="425" font-size="9" fill="#5a6672" text-anchor="start">10.5  B5</text><text x="88" y="425" font-size="10.5" fill="#1a1a1a" text-anchor="start">Live running to Day 60</text><rect x="699" y="415" width="105" height="12" fill="#b5322f" stroke="none" stroke-width="0" rx="2"/><text x="808" y="425" font-size="8" fill="#b5322f" text-anchor="start" font-weight="bold">CRIT</text><line x1="24" y1="453" x2="1014" y2="453" stroke="#eef0f2" stroke-width="1"/><text x="24" y="446" font-size="9" fill="#5a6672" text-anchor="start">10.60  MB60</text><text x="88" y="446" font-size="10.5" fill="#1a1a1a" text-anchor="start">Day 60 performance &amp; channel review</text><polygon points="804,436.5 810,442.5 804,448.5 798,442.5" fill="#1f2d3d" stroke="#fff" stroke-width="1"/><polygon points="804,439.5 807,442.5 804,445.5 801,442.5" fill="#fff" stroke="none" stroke-width="1"/><line x1="24" y1="474" x2="1014" y2="474" stroke="#eef0f2" stroke-width="1"/><text x="24" y="467" font-size="9" fill="#5a6672" text-anchor="start">10.6  B6</text><text x="88" y="467" font-size="10.5" fill="#1a1a1a" text-anchor="start">Live running to Day 75</text><rect x="804" y="457" width="105" height="12" fill="#b5322f" stroke="none" stroke-width="0" rx="2"/><text x="913" y="467" font-size="8" fill="#b5322f" text-anchor="start" font-weight="bold">CRIT</text><line x1="24" y1="495" x2="1014" y2="495" stroke="#eef0f2" stroke-width="1"/><text x="24" y="488" font-size="9" fill="#5a6672" text-anchor="start">10.75  MB75</text><text x="88" y="488" font-size="10.5" fill="#1a1a1a" text-anchor="start">Day 75 scale-readiness checkpoint</text><polygon points="909,478.5 915,484.5 909,490.5 903,484.5" fill="#1f2d3d" stroke="#fff" stroke-width="1"/><polygon points="909,481.5 912,484.5 909,487.5 906,484.5" fill="#fff" stroke="none" stroke-width="1"/><line x1="24" y1="516" x2="1014" y2="516" stroke="#eef0f2" stroke-width="1"/><text x="24" y="509" font-size="9" fill="#5a6672" text-anchor="start">10.7b  B7</text><text x="88" y="509" font-size="10.5" fill="#1a1a1a" text-anchor="start">Live running to Day 90</text><rect x="909" y="499" width="105" height="12" fill="#b5322f" stroke="none" stroke-width="0" rx="2"/><text x="1018" y="509" font-size="8" fill="#b5322f" text-anchor="start" font-weight="bold">CRIT</text><line x1="24" y1="537" x2="1014" y2="537" stroke="#eef0f2" stroke-width="1"/><text x="24" y="530" font-size="9" fill="#5a6672" text-anchor="start">10.90  MB90</text><text x="88" y="530" font-size="10.5" fill="#1a1a1a" text-anchor="start">Day 90 formal scale decision</text><polygon points="1014,520.5 1020,526.5 1014,532.5 1008,526.5" fill="#1f2d3d" stroke="#fff" stroke-width="1"/><polygon points="1014,523.5 1017,526.5 1014,529.5 1011,526.5" fill="#fff" stroke="none" stroke-width="1"/><rect x="24" y="557" width="16" height="10" fill="#b5322f" stroke="none" stroke-width="0"/><text x="46" y="567" font-size="10" fill="#1a1a1a" text-anchor="start">Critical path</text><rect x="154" y="557" width="16" height="10" fill="#3f6690" stroke="none" stroke-width="0"/><text x="176" y="567" font-size="10" fill="#1a1a1a" text-anchor="start">Non-critical (has float)</text><polygon points="344,556 350,562 344,568 338,562" fill="#1f2d3d" stroke="#fff" stroke-width="1"/><text x="356" y="567" font-size="10" fill="#1a1a1a" text-anchor="start">Milestone / gate</text><line x1="494" y1="562" x2="514" y2="562" stroke="#b5322f" stroke-width="1.5" stroke-dasharray="4 3"/><text x="520" y="567" font-size="10" fill="#1a1a1a" text-anchor="start">Day 30 / 60 / 90 review</text></svg>