<svg xmlns="http://www.w3.org/2000/svg" viewBox="0 0 891 1132" width="891" height="1132" font-family="Arial, Helvetica, sans-serif"><rect width="891" height="1132" fill="#ffffff"/><text x="24" y="34" font-size="20" fill="#1a1a1a" text-anchor="start" font-weight="bold">Gantt — Stage A (Preparation)</text><text x="24" y="56" font-size="12" fill="#5a6672" text-anchor="start">Calendar days from authorisation (Day 0). CPM early-start schedule. Launch at Day 69.</text><line x1="384" y1="88" x2="384" y2="1062" stroke="#c9d1d9" stroke-width="1"/><text x="384" y="82" font-size="9" fill="#5a6672" text-anchor="middle">D0</text><line x1="433" y1="88" x2="433" y2="1062" stroke="#c9d1d9" stroke-width="1"/><text x="433" y="82" font-size="9" fill="#5a6672" text-anchor="middle">D7</text><line x1="482" y1="88" x2="482" y2="1062" stroke="#c9d1d9" stroke-width="1"/><text x="482" y="82" font-size="9" fill="#5a6672" text-anchor="middle">D14</text><line x1="531" y1="88" x2="531" y2="1062" stroke="#c9d1d9" stroke-width="1"/><text x="531" y="82" font-size="9" fill="#5a6672" text-anchor="middle">D21</text><line x1="580" y1="88" x2="580" y2="1062" stroke="#c9d1d9" stroke-width="1"/><text x="580" y="82" font-size="9" fill="#5a6672" text-anchor="middle">D28</text><line x1="629" y1="88" x2="629" y2="1062" stroke="#c9d1d9" stroke-width="1"/><text x="629" y="82" font-size="9" fill="#5a6672" text-anchor="middle">D35</text><line x1="678" y1="88" x2="678" y2="1062" stroke="#c9d1d9" stroke-width="1"/><text x="678" y="82" font-size="9" fill="#5a6672" text-anchor="middle">D42</text><line x1="727" y1="88" x2="727" y2="1062" stroke="#c9d1d9" stroke-width="1"/><text x="727" y="82" font-size="9" fill="#5a6672" text-anchor="middle">D49</text><line x1="776" y1="88" x2="776" y2="1062" stroke="#c9d1d9" stroke-width="1"/><text x="776" y="82" font-size="9" fill="#5a6672" text-anchor="middle">D56</text><line x1="825" y1="88" x2="825" y2="1062" stroke="#c9d1d9" stroke-width="1"/><text x="825" y="82" font-size="9" fill="#5a6672" text-anchor="middle">D63</text><line x1="24" y1="117" x2="867" y2="117" stroke="#eef0f2" stroke-width="1"/><text x="24" y="110" font-size="9" fill="#5a6672" text-anchor="start">1.0  A0</text><text x="88" y="110" font-size="10.5" fill="#1a1a1a" text-anchor="start">Project authorisation</text><rect x="384" y="100" width="2" height="12" fill="#b5322f" stroke="none" stroke-width="0" rx="2"/><text x="390" y="110" font-size="8" fill="#b5322f" text-anchor="start" font-weight="bold">CRIT</text><line x1="24" y1="138" x2="867" y2="138" stroke="#eef0f2" stroke-width="1"/><text x="24" y="131" font-size="9" fill="#5a6672" text-anchor="start">1.1  A1</text><text x="88" y="131" font-size="10.5" fill="#1a1a1a" text-anchor="start">Kick-off &amp; roles confirmation</text><rect x="384" y="121" width="21" height="12" fill="#b5322f" stroke="none" stroke-width="0" rx="2"/><text x="409" y="131" font-size="8" fill="#b5322f" text-anchor="start" font-weight="bold">CRIT</text><line x1="24" y1="159" x2="867" y2="159" stroke="#eef0f2" stroke-width="1"/><text x="24" y="152" font-size="9" fill="#5a6672" text-anchor="start">1.2  A2</text><text x="88" y="152" font-size="10.5" fill="#1a1a1a" text-anchor="start">Stakeholder &amp; sponsor confirmation</text><rect x="405" y="142" width="7" height="12" fill="#b5322f" stroke="none" stroke-width="0" rx="2"/><text x="416" y="152" font-size="8" fill="#b5322f" text-anchor="start" font-weight="bold">CRIT</text><line x1="24" y1="180" x2="867" y2="180" stroke="#eef0f2" stroke-width="1"/><text x="24" y="173" font-size="9" fill="#5a6672" text-anchor="start">1.5  A3</text><text x="88" y="173" font-size="10.5" fill="#1a1a1a" text-anchor="start">Commercial scope decision (marketing vs buil</text><rect x="405" y="163" width="28" height="12" fill="#3f6690" stroke="none" stroke-width="0" rx="2"/><line x1="24" y1="201" x2="867" y2="201" stroke="#eef0f2" stroke-width="1"/><text x="24" y="194" font-size="9" fill="#5a6672" text-anchor="start">1.4  A4</text><text x="88" y="194" font-size="10.5" fill="#1a1a1a" text-anchor="start">Access &amp; assets collection</text><rect x="405" y="184" width="98" height="12" fill="#3f6690" stroke="none" stroke-width="0" rx="2"/><line x1="24" y1="222" x2="867" y2="222" stroke="#eef0f2" stroke-width="1"/><text x="24" y="215" font-size="9" fill="#5a6672" text-anchor="start">2.2  A13</text><text x="88" y="215" font-size="10.5" fill="#1a1a1a" text-anchor="start">Competitor research</text><rect x="405" y="205" width="28" height="12" fill="#3f6690" stroke="none" stroke-width="0" rx="2"/><line x1="24" y1="243" x2="867" y2="243" stroke="#eef0f2" stroke-width="1"/><text x="24" y="236" font-size="9" fill="#5a6672" text-anchor="start">1.3  A5</text><text x="88" y="236" font-size="10.5" fill="#1a1a1a" text-anchor="start">Discovery &amp; compliance information collectio</text><rect x="412" y="226" width="63" height="12" fill="#b5322f" stroke="none" stroke-width="0" rx="2"/><text x="479" y="236" font-size="8" fill="#b5322f" text-anchor="start" font-weight="bold">CRIT</text><line x1="24" y1="264" x2="867" y2="264" stroke="#eef0f2" stroke-width="1"/><text x="24" y="257" font-size="9" fill="#5a6672" text-anchor="start">7.5  A34</text><text x="88" y="257" font-size="10.5" fill="#1a1a1a" text-anchor="start">Google financial-services verification</text><rect x="503" y="247" width="98" height="12" fill="#3f6690" stroke="none" stroke-width="0" rx="2"/><line x1="24" y1="285" x2="867" y2="285" stroke="#eef0f2" stroke-width="1"/><text x="24" y="278" font-size="9" fill="#5a6672" text-anchor="start">3.1  A6</text><text x="88" y="278" font-size="10.5" fill="#1a1a1a" text-anchor="start">Compliance questions completed</text><rect x="475" y="268" width="28" height="12" fill="#b5322f" stroke="none" stroke-width="0" rx="2"/><text x="507" y="278" font-size="8" fill="#b5322f" text-anchor="start" font-weight="bold">CRIT</text><line x1="24" y1="306" x2="867" y2="306" stroke="#eef0f2" stroke-width="1"/><text x="24" y="299" font-size="9" fill="#5a6672" text-anchor="start">2.1  A11</text><text x="88" y="299" font-size="10.5" fill="#1a1a1a" text-anchor="start">Audience confirmation</text><rect x="475" y="289" width="14" height="12" fill="#b5322f" stroke="none" stroke-width="0" rx="2"/><text x="493" y="299" font-size="8" fill="#b5322f" text-anchor="start" font-weight="bold">CRIT</text><line x1="24" y1="327" x2="867" y2="327" stroke="#eef0f2" stroke-width="1"/><text x="24" y="320" font-size="9" fill="#5a6672" text-anchor="start">6.1  A27</text><text x="88" y="320" font-size="10.5" fill="#1a1a1a" text-anchor="start">CRM &amp; lead-process preparation</text><rect x="475" y="310" width="56" height="12" fill="#3f6690" stroke="none" stroke-width="0" rx="2"/><line x1="24" y1="348" x2="867" y2="348" stroke="#eef0f2" stroke-width="1"/><text x="24" y="341" font-size="9" fill="#5a6672" text-anchor="start">3.2  A7</text><text x="88" y="341" font-size="10.5" fill="#1a1a1a" text-anchor="start">Approved claims list</text><rect x="503" y="331" width="56" height="12" fill="#b5322f" stroke="none" stroke-width="0" rx="2"/><text x="563" y="341" font-size="8" fill="#b5322f" text-anchor="start" font-weight="bold">CRIT</text><line x1="24" y1="369" x2="867" y2="369" stroke="#eef0f2" stroke-width="1"/><text x="24" y="362" font-size="9" fill="#5a6672" text-anchor="start">3.3  A8</text><text x="88" y="362" font-size="10.5" fill="#1a1a1a" text-anchor="start">Restricted claims list</text><rect x="503" y="352" width="21" height="12" fill="#3f6690" stroke="none" stroke-width="0" rx="2"/><line x1="24" y1="390" x2="867" y2="390" stroke="#eef0f2" stroke-width="1"/><text x="24" y="383" font-size="9" fill="#5a6672" text-anchor="start">3.5  A10</text><text x="88" y="383" font-size="10.5" fill="#1a1a1a" text-anchor="start">Privacy &amp; consent wording confirmed</text><rect x="503" y="373" width="28" height="12" fill="#3f6690" stroke="none" stroke-width="0" rx="2"/><line x1="24" y1="411" x2="867" y2="411" stroke="#eef0f2" stroke-width="1"/><text x="24" y="404" font-size="9" fill="#5a6672" text-anchor="start">2.4  A12</text><text x="88" y="404" font-size="10.5" fill="#1a1a1a" text-anchor="start">Offer confirmation</text><rect x="489" y="394" width="21" height="12" fill="#b5322f" stroke="none" stroke-width="0" rx="2"/><text x="514" y="404" font-size="8" fill="#b5322f" text-anchor="start" font-weight="bold">CRIT</text><line x1="24" y1="432" x2="867" y2="432" stroke="#eef0f2" stroke-width="1"/><text x="24" y="425" font-size="9" fill="#5a6672" text-anchor="start">2.6  A16</text><text x="88" y="425" font-size="10.5" fill="#1a1a1a" text-anchor="start">Measurement baseline</text><rect x="489" y="415" width="21" height="12" fill="#3f6690" stroke="none" stroke-width="0" rx="2"/><line x1="24" y1="453" x2="867" y2="453" stroke="#eef0f2" stroke-width="1"/><text x="24" y="446" font-size="9" fill="#5a6672" text-anchor="start">3.4  A9</text><text x="88" y="446" font-size="10.5" fill="#1a1a1a" text-anchor="start">Required disclaimers</text><rect x="559" y="436" width="28" height="12" fill="#b5322f" stroke="none" stroke-width="0" rx="2"/><text x="591" y="446" font-size="8" fill="#b5322f" text-anchor="start" font-weight="bold">CRIT</text><line x1="24" y1="474" x2="867" y2="474" stroke="#eef0f2" stroke-width="1"/><text x="24" y="467" font-size="9" fill="#5a6672" text-anchor="start">2.3  A14</text><text x="88" y="467" font-size="10.5" fill="#1a1a1a" text-anchor="start">Keyword research</text><rect x="510" y="457" width="28" height="12" fill="#b5322f" stroke="none" stroke-width="0" rx="2"/><text x="542" y="467" font-size="8" fill="#b5322f" text-anchor="start" font-weight="bold">CRIT</text><line x1="24" y1="495" x2="867" y2="495" stroke="#eef0f2" stroke-width="1"/><text x="24" y="488" font-size="9" fill="#5a6672" text-anchor="start">3.9  M1</text><text x="88" y="488" font-size="10.5" fill="#1a1a1a" text-anchor="start">Compliance &amp; claims approved</text><polygon points="587,478.5 593,484.5 587,490.5 581,484.5" fill="#1f2d3d" stroke="#fff" stroke-width="1"/><polygon points="587,481.5 590,484.5 587,487.5 584,484.5" fill="#fff" stroke="none" stroke-width="1"/><line x1="24" y1="516" x2="867" y2="516" stroke="#eef0f2" stroke-width="1"/><text x="24" y="509" font-size="9" fill="#5a6672" text-anchor="start">2.4b  A15</text><text x="88" y="509" font-size="10.5" fill="#1a1a1a" text-anchor="start">Negative keyword research</text><rect x="538" y="499" width="21" height="12" fill="#b5322f" stroke="none" stroke-width="0" rx="2"/><text x="563" y="509" font-size="8" fill="#b5322f" text-anchor="start" font-weight="bold">CRIT</text><line x1="24" y1="537" x2="867" y2="537" stroke="#eef0f2" stroke-width="1"/><text x="24" y="530" font-size="9" fill="#5a6672" text-anchor="start">6.4  A28</text><text x="88" y="530" font-size="10.5" fill="#1a1a1a" text-anchor="start">Email &amp; WhatsApp workflow preparation</text><rect x="587" y="520" width="35" height="12" fill="#3f6690" stroke="none" stroke-width="0" rx="2"/><line x1="24" y1="558" x2="867" y2="558" stroke="#eef0f2" stroke-width="1"/><text x="24" y="551" font-size="9" fill="#5a6672" text-anchor="start">8.2  A35</text><text x="88" y="551" font-size="10.5" fill="#1a1a1a" text-anchor="start">SEO foundation content</text><rect x="587" y="541" width="84" height="12" fill="#3f6690" stroke="none" stroke-width="0" rx="2"/><line x1="24" y1="579" x2="867" y2="579" stroke="#eef0f2" stroke-width="1"/><text x="24" y="572" font-size="9" fill="#5a6672" text-anchor="start">8.3  A36</text><text x="88" y="572" font-size="10.5" fill="#1a1a1a" text-anchor="start">Partner marketing materials &amp; LinkedIn setup</text><rect x="587" y="562" width="63" height="12" fill="#3f6690" stroke="none" stroke-width="0" rx="2"/><line x1="24" y1="600" x2="867" y2="600" stroke="#eef0f2" stroke-width="1"/><text x="24" y="593" font-size="9" fill="#5a6672" text-anchor="start">2.9  M2</text><text x="88" y="593" font-size="10.5" fill="#1a1a1a" text-anchor="start">Strategy approved</text><polygon points="559,583.5 565,589.5 559,595.5 553,589.5" fill="#1f2d3d" stroke="#fff" stroke-width="1"/><polygon points="559,586.5 562,589.5 559,592.5 556,589.5" fill="#fff" stroke="none" stroke-width="1"/><line x1="24" y1="621" x2="867" y2="621" stroke="#eef0f2" stroke-width="1"/><text x="24" y="614" font-size="9" fill="#5a6672" text-anchor="start">6.5  A29</text><text x="88" y="614" font-size="10.5" fill="#1a1a1a" text-anchor="start">Lead-handling readiness sign-off</text><rect x="622" y="604" width="14" height="12" fill="#3f6690" stroke="none" stroke-width="0" rx="2"/><line x1="24" y1="642" x2="867" y2="642" stroke="#eef0f2" stroke-width="1"/><text x="24" y="635" font-size="9" fill="#5a6672" text-anchor="start">4.1  A17</text><text x="88" y="635" font-size="10.5" fill="#1a1a1a" text-anchor="start">Landing page planning &amp; sitemap sign-off</text><rect x="559" y="625" width="28" height="12" fill="#b5322f" stroke="none" stroke-width="0" rx="2"/><text x="591" y="635" font-size="8" fill="#b5322f" text-anchor="start" font-weight="bold">CRIT</text><line x1="24" y1="663" x2="867" y2="663" stroke="#eef0f2" stroke-width="1"/><text x="24" y="656" font-size="9" fill="#5a6672" text-anchor="start">5.1  A22</text><text x="88" y="656" font-size="10.5" fill="#1a1a1a" text-anchor="start">Tracking architecture &amp; plan</text><rect x="559" y="646" width="21" height="12" fill="#3f6690" stroke="none" stroke-width="0" rx="2"/><line x1="24" y1="684" x2="867" y2="684" stroke="#eef0f2" stroke-width="1"/><text x="24" y="677" font-size="9" fill="#5a6672" text-anchor="start">7.1  A30</text><text x="88" y="677" font-size="10.5" fill="#1a1a1a" text-anchor="start">Campaign structure (Google + Meta setup)</text><rect x="559" y="667" width="21" height="12" fill="#3f6690" stroke="none" stroke-width="0" rx="2"/><line x1="24" y1="705" x2="867" y2="705" stroke="#eef0f2" stroke-width="1"/><text x="24" y="698" font-size="9" fill="#5a6672" text-anchor="start">6.9  M5</text><text x="88" y="698" font-size="10.5" fill="#1a1a1a" text-anchor="start">Lead handling ready</text><polygon points="636,688.5 642,694.5 636,700.5 630,694.5" fill="#1f2d3d" stroke="#fff" stroke-width="1"/><line x1="24" y1="726" x2="867" y2="726" stroke="#eef0f2" stroke-width="1"/><text x="24" y="719" font-size="9" fill="#5a6672" text-anchor="start">4.2  A18</text><text x="88" y="719" font-size="10.5" fill="#1a1a1a" text-anchor="start">Landing page copy &amp; creative</text><rect x="587" y="709" width="63" height="12" fill="#b5322f" stroke="none" stroke-width="0" rx="2"/><text x="654" y="719" font-size="8" fill="#b5322f" text-anchor="start" font-weight="bold">CRIT</text><line x1="24" y1="747" x2="867" y2="747" stroke="#eef0f2" stroke-width="1"/><text x="24" y="740" font-size="9" fill="#5a6672" text-anchor="start">5.2  A23</text><text x="88" y="740" font-size="10.5" fill="#1a1a1a" text-anchor="start">GA4 &amp; GTM setup</text><rect x="580" y="730" width="28" height="12" fill="#3f6690" stroke="none" stroke-width="0" rx="2"/><line x1="24" y1="768" x2="867" y2="768" stroke="#eef0f2" stroke-width="1"/><text x="24" y="761" font-size="9" fill="#5a6672" text-anchor="start">7.3  A31</text><text x="88" y="761" font-size="10.5" fill="#1a1a1a" text-anchor="start">Ad copy draft</text><rect x="587" y="751" width="35" height="12" fill="#3f6690" stroke="none" stroke-width="0" rx="2"/><line x1="24" y1="789" x2="867" y2="789" stroke="#eef0f2" stroke-width="1"/><text x="24" y="782" font-size="9" fill="#5a6672" text-anchor="start">4.2b  A19</text><text x="88" y="782" font-size="10.5" fill="#1a1a1a" text-anchor="start">Landing page build (interim/platform)</text><rect x="650" y="772" width="105" height="12" fill="#b5322f" stroke="none" stroke-width="0" rx="2"/><text x="759" y="782" font-size="8" fill="#b5322f" text-anchor="start" font-weight="bold">CRIT</text><line x1="24" y1="810" x2="867" y2="810" stroke="#eef0f2" stroke-width="1"/><text x="24" y="803" font-size="9" fill="#5a6672" text-anchor="start">4.3  A20</text><text x="88" y="803" font-size="10.5" fill="#1a1a1a" text-anchor="start">Form preparation</text><rect x="650" y="793" width="28" height="12" fill="#3f6690" stroke="none" stroke-width="0" rx="2"/><line x1="24" y1="831" x2="867" y2="831" stroke="#eef0f2" stroke-width="1"/><text x="24" y="824" font-size="9" fill="#5a6672" text-anchor="start">5.3  A24</text><text x="88" y="824" font-size="10.5" fill="#1a1a1a" text-anchor="start">Conversion configuration</text><rect x="608" y="814" width="21" height="12" fill="#3f6690" stroke="none" stroke-width="0" rx="2"/><line x1="24" y1="852" x2="867" y2="852" stroke="#eef0f2" stroke-width="1"/><text x="24" y="845" font-size="9" fill="#5a6672" text-anchor="start">7.3b  A32</text><text x="88" y="845" font-size="10.5" fill="#1a1a1a" text-anchor="start">Ad copy approval</text><rect x="622" y="835" width="35" height="12" fill="#3f6690" stroke="none" stroke-width="0" rx="2"/><line x1="24" y1="873" x2="867" y2="873" stroke="#eef0f2" stroke-width="1"/><text x="24" y="866" font-size="9" fill="#5a6672" text-anchor="start">4.7  A21</text><text x="88" y="866" font-size="10.5" fill="#1a1a1a" text-anchor="start">Landing page QA &amp; approval</text><rect x="755" y="856" width="21" height="12" fill="#b5322f" stroke="none" stroke-width="0" rx="2"/><text x="780" y="866" font-size="8" fill="#b5322f" text-anchor="start" font-weight="bold">CRIT</text><line x1="24" y1="894" x2="867" y2="894" stroke="#eef0f2" stroke-width="1"/><text x="24" y="887" font-size="9" fill="#5a6672" text-anchor="start">5.4  A25</text><text x="88" y="887" font-size="10.5" fill="#1a1a1a" text-anchor="start">Lead-source capture &amp; UTM</text><rect x="629" y="877" width="21" height="12" fill="#3f6690" stroke="none" stroke-width="0" rx="2"/><line x1="24" y1="915" x2="867" y2="915" stroke="#eef0f2" stroke-width="1"/><text x="24" y="908" font-size="9" fill="#5a6672" text-anchor="start">4.9  M3</text><text x="88" y="908" font-size="10.5" fill="#1a1a1a" text-anchor="start">Landing pages approved</text><polygon points="776,898.5 782,904.5 776,910.5 770,904.5" fill="#1f2d3d" stroke="#fff" stroke-width="1"/><polygon points="776,901.5 779,904.5 776,907.5 773,904.5" fill="#fff" stroke="none" stroke-width="1"/><line x1="24" y1="936" x2="867" y2="936" stroke="#eef0f2" stroke-width="1"/><text x="24" y="929" font-size="9" fill="#5a6672" text-anchor="start">5.6  A26</text><text x="88" y="929" font-size="10.5" fill="#1a1a1a" text-anchor="start">Tracking end-to-end test</text><rect x="776" y="919" width="21" height="12" fill="#b5322f" stroke="none" stroke-width="0" rx="2"/><text x="801" y="929" font-size="8" fill="#b5322f" text-anchor="start" font-weight="bold">CRIT</text><line x1="24" y1="957" x2="867" y2="957" stroke="#eef0f2" stroke-width="1"/><text x="24" y="950" font-size="9" fill="#5a6672" text-anchor="start">5.9  M4</text><text x="88" y="950" font-size="10.5" fill="#1a1a1a" text-anchor="start">Tracking approved</text><polygon points="797,940.5 803,946.5 797,952.5 791,946.5" fill="#1f2d3d" stroke="#fff" stroke-width="1"/><polygon points="797,943.5 800,946.5 797,949.5 794,946.5" fill="#fff" stroke="none" stroke-width="1"/><line x1="24" y1="978" x2="867" y2="978" stroke="#eef0f2" stroke-width="1"/><text x="24" y="971" font-size="9" fill="#5a6672" text-anchor="start">7.1b  A33</text><text x="88" y="971" font-size="10.5" fill="#1a1a1a" text-anchor="start">Campaign build</text><rect x="797" y="961" width="28" height="12" fill="#b5322f" stroke="none" stroke-width="0" rx="2"/><text x="829" y="971" font-size="8" fill="#b5322f" text-anchor="start" font-weight="bold">CRIT</text><line x1="24" y1="999" x2="867" y2="999" stroke="#eef0f2" stroke-width="1"/><text x="24" y="992" font-size="9" fill="#5a6672" text-anchor="start">7.9  M6</text><text x="88" y="992" font-size="10.5" fill="#1a1a1a" text-anchor="start">Campaigns approved</text><polygon points="825,982.5 831,988.5 825,994.5 819,988.5" fill="#1f2d3d" stroke="#fff" stroke-width="1"/><polygon points="825,985.5 828,988.5 825,991.5 822,988.5" fill="#fff" stroke="none" stroke-width="1"/><line x1="24" y1="1020" x2="867" y2="1020" stroke="#eef0f2" stroke-width="1"/><text x="24" y="1013" font-size="9" fill="#5a6672" text-anchor="start">9.1  A37</text><text x="88" y="1013" font-size="10.5" fill="#1a1a1a" text-anchor="start">Pre-launch testing (form/tracking/technical)</text><rect x="825" y="1003" width="28" height="12" fill="#b5322f" stroke="none" stroke-width="0" rx="2"/><text x="857" y="1013" font-size="8" fill="#b5322f" text-anchor="start" font-weight="bold">CRIT</text><line x1="24" y1="1041" x2="867" y2="1041" stroke="#eef0f2" stroke-width="1"/><text x="24" y="1034" font-size="9" fill="#5a6672" text-anchor="start">9.4  A38</text><text x="88" y="1034" font-size="10.5" fill="#1a1a1a" text-anchor="start">Launch checklist sign-off</text><rect x="853" y="1024" width="14" height="12" fill="#b5322f" stroke="none" stroke-width="0" rx="2"/><text x="871" y="1034" font-size="8" fill="#b5322f" text-anchor="start" font-weight="bold">CRIT</text><line x1="24" y1="1062" x2="867" y2="1062" stroke="#eef0f2" stroke-width="1"/><text x="24" y="1055" font-size="9" fill="#5a6672" text-anchor="start">10.0  M7</text><text x="88" y="1055" font-size="10.5" fill="#1a1a1a" text-anchor="start">Controlled Launch</text><polygon points="867,1045.5 873,1051.5 867,1057.5 861,1051.5" fill="#1f2d3d" stroke="#fff" stroke-width="1"/><polygon points="867,1048.5 870,1051.5 867,1054.5 864,1051.5" fill="#fff" stroke="none" stroke-width="1"/><rect x="24" y="1082" width="16" height="10" fill="#b5322f" stroke="none" stroke-width="0"/><text x="46" y="1092" font-size="10" fill="#1a1a1a" text-anchor="start">Critical path</text><rect x="154" y="1082" width="16" height="10" fill="#3f6690" stroke="none" stroke-width="0"/><text x="176" y="1092" font-size="10" fill="#1a1a1a" text-anchor="start">Non-critical (has float)</text><polygon points="344,1081 350,1087 344,1093 338,1087" fill="#1f2d3d" stroke="#fff" stroke-width="1"/><text x="356" y="1092" font-size="10" fill="#1a1a1a" text-anchor="start">Milestone / gate</text></svg>