<svg xmlns="http://www.w3.org/2000/svg" viewBox="0 0 1412 320" width="1412" height="320" font-family="Arial, Helvetica, sans-serif"><rect width="1412" height="320" fill="#ffffff"/><text x="30" y="34" font-size="20" fill="#1a1a1a" text-anchor="start" font-weight="bold">Milestone Timeline</text><text x="30" y="54" font-size="12" fill="#5a6672" text-anchor="start">Chronological, positioned by calendar day from authorisation (Day 0). Stage B milestones are live days after launch.</text><line x1="50" y1="160" x2="1322" y2="160" stroke="#1f2d3d" stroke-width="2"/><line x1="50" y1="160" x2="50" y2="144" stroke="#1f2d3d" stroke-width="1"/><polygon points="50,154 56,160 50,166 44,160" fill="#1f2d3d" stroke="#fff" stroke-width="1"/><text x="50" y="136" font-size="9.5" fill="#1a1a1a" text-anchor="middle">Authorisation</text><text x="50" y="125" font-size="8.5" fill="#5a6672" text-anchor="middle">D0</text><line x1="74" y1="160" x2="74" y2="176" stroke="#1f2d3d" stroke-width="1"/><polygon points="74,154 80,160 74,166 68,160" fill="#1f2d3d" stroke="#fff" stroke-width="1"/><text x="74" y="194" font-size="9.5" fill="#1a1a1a" text-anchor="middle">Kick-off</text><text x="74" y="205" font-size="8.5" fill="#5a6672" text-anchor="middle">D3</text><line x1="186" y1="160" x2="186" y2="144" stroke="#1f2d3d" stroke-width="1"/><polygon points="186,154 192,160 186,166 180,160" fill="#1f2d3d" stroke="#fff" stroke-width="1"/><text x="186" y="136" font-size="9.5" fill="#1a1a1a" text-anchor="middle">Compliance confirmed</text><text x="186" y="125" font-size="8.5" fill="#5a6672" text-anchor="middle">D17</text><line x1="250" y1="160" x2="250" y2="176" stroke="#1f2d3d" stroke-width="1"/><polygon points="250,154 256,160 250,166 244,160" fill="#1f2d3d" stroke="#fff" stroke-width="1"/><text x="250" y="194" font-size="9.5" fill="#1a1a1a" text-anchor="middle">Strategy approved</text><text x="250" y="205" font-size="8.5" fill="#5a6672" text-anchor="middle">D25</text><line x1="282" y1="160" x2="282" y2="144" stroke="#1f2d3d" stroke-width="1"/><polygon points="282,154 288,160 282,166 276,160" fill="#1f2d3d" stroke="#fff" stroke-width="1"/><text x="282" y="136" font-size="9.5" fill="#1a1a1a" text-anchor="middle">Claims approved</text><text x="282" y="125" font-size="8.5" fill="#5a6672" text-anchor="middle">D29</text><line x1="338" y1="160" x2="338" y2="176" stroke="#1f2d3d" stroke-width="1"/><polygon points="338,154 344,160 338,166 332,160" fill="#1f2d3d" stroke="#fff" stroke-width="1"/><text x="338" y="194" font-size="9.5" fill="#1a1a1a" text-anchor="middle">Lead handling ready</text><text x="338" y="205" font-size="8.5" fill="#5a6672" text-anchor="middle">D36</text><line x1="498" y1="160" x2="498" y2="144" stroke="#1f2d3d" stroke-width="1"/><polygon points="498,154 504,160 498,166 492,160" fill="#1f2d3d" stroke="#fff" stroke-width="1"/><text x="498" y="136" font-size="9.5" fill="#1a1a1a" text-anchor="middle">Landing pages approved</text><text x="498" y="125" font-size="8.5" fill="#5a6672" text-anchor="middle">D56</text><line x1="522" y1="160" x2="522" y2="176" stroke="#1f2d3d" stroke-width="1"/><polygon points="522,154 528,160 522,166 516,160" fill="#1f2d3d" stroke="#fff" stroke-width="1"/><text x="522" y="194" font-size="9.5" fill="#1a1a1a" text-anchor="middle">Tracking approved</text><text x="522" y="205" font-size="8.5" fill="#5a6672" text-anchor="middle">D59</text><line x1="554" y1="160" x2="554" y2="144" stroke="#1f2d3d" stroke-width="1"/><polygon points="554,154 560,160 554,166 548,160" fill="#1f2d3d" stroke="#fff" stroke-width="1"/><text x="554" y="136" font-size="9.5" fill="#1a1a1a" text-anchor="middle">Campaigns approved</text><text x="554" y="125" font-size="8.5" fill="#5a6672" text-anchor="middle">D63</text><line x1="602" y1="160" x2="602" y2="176" stroke="#b5322f" stroke-width="1"/><polygon points="602,152 610,160 602,168 594,160" fill="#b5322f" stroke="#fff" stroke-width="1"/><text x="602" y="194" font-size="9.5" fill="#1a1a1a" text-anchor="middle" font-weight="bold">CONTROLLED LAUNCH</text><text x="602" y="205" font-size="8.5" fill="#5a6672" text-anchor="middle">D69</text><line x1="658" y1="160" x2="658" y2="144" stroke="#b5322f" stroke-width="1"/><polygon points="658,154 664,160 658,166 652,160" fill="#b5322f" stroke="#fff" stroke-width="1"/><text x="658" y="136" font-size="9.5" fill="#1a1a1a" text-anchor="middle">Day 7 review</text><text x="658" y="125" font-size="8.5" fill="#5a6672" text-anchor="middle">D76</text><line x1="714" y1="160" x2="714" y2="176" stroke="#b5322f" stroke-width="1"/><polygon points="714,154 720,160 714,166 708,160" fill="#b5322f" stroke="#fff" stroke-width="1"/><text x="714" y="194" font-size="9.5" fill="#1a1a1a" text-anchor="middle">Day 14 review</text><text x="714" y="205" font-size="8.5" fill="#5a6672" text-anchor="middle">D83</text><line x1="842" y1="160" x2="842" y2="144" stroke="#b5322f" stroke-width="1"/><polygon points="842,154 848,160 842,166 836,160" fill="#b5322f" stroke="#fff" stroke-width="1"/><text x="842" y="136" font-size="9.5" fill="#1a1a1a" text-anchor="middle">Day 30 review</text><text x="842" y="125" font-size="8.5" fill="#5a6672" text-anchor="middle">D99</text><line x1="962" y1="160" x2="962" y2="176" stroke="#b5322f" stroke-width="1"/><polygon points="962,154 968,160 962,166 956,160" fill="#b5322f" stroke="#fff" stroke-width="1"/><text x="962" y="194" font-size="9.5" fill="#1a1a1a" text-anchor="middle">Day 45 checkpoint</text><text x="962" y="205" font-size="8.5" fill="#5a6672" text-anchor="middle">D114</text><line x1="1082" y1="160" x2="1082" y2="144" stroke="#b5322f" stroke-width="1"/><polygon points="1082,154 1088,160 1082,166 1076,160" fill="#b5322f" stroke="#fff" stroke-width="1"/><text x="1082" y="136" font-size="9.5" fill="#1a1a1a" text-anchor="middle">Day 60 review</text><text x="1082" y="125" font-size="8.5" fill="#5a6672" text-anchor="middle">D129</text><line x1="1202" y1="160" x2="1202" y2="176" stroke="#b5322f" stroke-width="1"/><polygon points="1202,154 1208,160 1202,166 1196,160" fill="#b5322f" stroke="#fff" stroke-width="1"/><text x="1202" y="194" font-size="9.5" fill="#1a1a1a" text-anchor="middle">Day 75 checkpoint</text><text x="1202" y="205" font-size="8.5" fill="#5a6672" text-anchor="middle">D144</text><line x1="1322" y1="160" x2="1322" y2="144" stroke="#b5322f" stroke-width="1"/><polygon points="1322,154 1328,160 1322,166 1316,160" fill="#b5322f" stroke="#fff" stroke-width="1"/><text x="1322" y="136" font-size="9.5" fill="#1a1a1a" text-anchor="middle">Day 90 decision</text><text x="1322" y="125" font-size="8.5" fill="#5a6672" text-anchor="middle">D159</text><rect x="30" y="294" width="14" height="10" fill="#1f2d3d" stroke="none" stroke-width="0"/><text x="50" y="303" font-size="10" fill="#1a1a1a" text-anchor="start">Stage A gate/milestone</text><rect x="220" y="294" width="14" height="10" fill="#b5322f" stroke="none" stroke-width="0"/><text x="240" y="303" font-size="10" fill="#1a1a1a" text-anchor="start">Launch &amp; live-campaign reviews</text></svg>