<svg xmlns="http://www.w3.org/2000/svg" viewBox="0 0 1462 345" width="1462" height="345" font-family="Arial, Helvetica, sans-serif"><rect width="1462" height="345" fill="#ffffff"/><text x="30" y="34" font-size="20" fill="#1a1a1a" text-anchor="start" font-weight="bold">Milestone Timeline</text><text x="30" y="54" font-size="12" fill="#5a6672" text-anchor="start">Chronological order (even spacing, not to day-scale). Day number under each marker. Stage B milestones are live days after launch.</text><line x1="60" y1="180" x2="1372" y2="180" stroke="#1f2d3d" stroke-width="2"/><line x1="60" y1="180" x2="60" y2="108" stroke="#1f2d3d" stroke-width="1"/><polygon points="60,174 66,180 60,186 54,180" fill="#1f2d3d" stroke="#fff" stroke-width="1"/><text x="60" y="105" font-size="9.5" fill="#1a1a1a" text-anchor="middle">Authorisation</text><text x="60" y="117" font-size="8.5" fill="#5a6672" text-anchor="middle">D0</text><line x1="142" y1="180" x2="142" y2="68" stroke="#1f2d3d" stroke-width="1"/><polygon points="142,174 148,180 142,186 136,180" fill="#1f2d3d" stroke="#fff" stroke-width="1"/><text x="142" y="65" font-size="9.5" fill="#1a1a1a" text-anchor="middle">Kick-off</text><text x="142" y="77" font-size="8.5" fill="#5a6672" text-anchor="middle">D3</text><line x1="224" y1="180" x2="224" y2="238" stroke="#1f2d3d" stroke-width="1"/><polygon points="224,174 230,180 224,186 218,180" fill="#1f2d3d" stroke="#fff" stroke-width="1"/><text x="224" y="240" font-size="9.5" fill="#1a1a1a" text-anchor="middle">Compliance confirmed</text><text x="224" y="251" font-size="8.5" fill="#5a6672" text-anchor="middle">D17</text><line x1="306" y1="180" x2="306" y2="278" stroke="#1f2d3d" stroke-width="1"/><polygon points="306,174 312,180 306,186 300,180" fill="#1f2d3d" stroke="#fff" stroke-width="1"/><text x="306" y="280" font-size="9.5" fill="#1a1a1a" text-anchor="middle">Strategy approved</text><text x="306" y="291" font-size="8.5" fill="#5a6672" text-anchor="middle">D25</text><line x1="388" y1="180" x2="388" y2="108" stroke="#1f2d3d" stroke-width="1"/><polygon points="388,174 394,180 388,186 382,180" fill="#1f2d3d" stroke="#fff" stroke-width="1"/><text x="388" y="105" font-size="9.5" fill="#1a1a1a" text-anchor="middle">Claims approved</text><text x="388" y="117" font-size="8.5" fill="#5a6672" text-anchor="middle">D29</text><line x1="470" y1="180" x2="470" y2="68" stroke="#1f2d3d" stroke-width="1"/><polygon points="470,174 476,180 470,186 464,180" fill="#1f2d3d" stroke="#fff" stroke-width="1"/><text x="470" y="65" font-size="9.5" fill="#1a1a1a" text-anchor="middle">Lead handling ready</text><text x="470" y="77" font-size="8.5" fill="#5a6672" text-anchor="middle">D36</text><line x1="552" y1="180" x2="552" y2="238" stroke="#1f2d3d" stroke-width="1"/><polygon points="552,174 558,180 552,186 546,180" fill="#1f2d3d" stroke="#fff" stroke-width="1"/><text x="552" y="240" font-size="9.5" fill="#1a1a1a" text-anchor="middle">Landing pages approved</text><text x="552" y="251" font-size="8.5" fill="#5a6672" text-anchor="middle">D56</text><line x1="634" y1="180" x2="634" y2="278" stroke="#1f2d3d" stroke-width="1"/><polygon points="634,174 640,180 634,186 628,180" fill="#1f2d3d" stroke="#fff" stroke-width="1"/><text x="634" y="280" font-size="9.5" fill="#1a1a1a" text-anchor="middle">Tracking approved</text><text x="634" y="291" font-size="8.5" fill="#5a6672" text-anchor="middle">D59</text><line x1="716" y1="180" x2="716" y2="108" stroke="#1f2d3d" stroke-width="1"/><polygon points="716,174 722,180 716,186 710,180" fill="#1f2d3d" stroke="#fff" stroke-width="1"/><text x="716" y="105" font-size="9.5" fill="#1a1a1a" text-anchor="middle">Campaigns approved</text><text x="716" y="117" font-size="8.5" fill="#5a6672" text-anchor="middle">D63</text><line x1="798" y1="180" x2="798" y2="68" stroke="#b5322f" stroke-width="1"/><polygon points="798,171 807,180 798,189 789,180" fill="#b5322f" stroke="#fff" stroke-width="1"/><text x="798" y="65" font-size="9.5" fill="#1a1a1a" text-anchor="middle" font-weight="bold">CONTROLLED LAUNCH</text><text x="798" y="77" font-size="8.5" fill="#5a6672" text-anchor="middle">D69</text><line x1="880" y1="180" x2="880" y2="238" stroke="#b5322f" stroke-width="1"/><polygon points="880,174 886,180 880,186 874,180" fill="#b5322f" stroke="#fff" stroke-width="1"/><text x="880" y="240" font-size="9.5" fill="#1a1a1a" text-anchor="middle">Day 7 review</text><text x="880" y="251" font-size="8.5" fill="#5a6672" text-anchor="middle">D76</text><line x1="962" y1="180" x2="962" y2="278" stroke="#b5322f" stroke-width="1"/><polygon points="962,174 968,180 962,186 956,180" fill="#b5322f" stroke="#fff" stroke-width="1"/><text x="962" y="280" font-size="9.5" fill="#1a1a1a" text-anchor="middle">Day 14 review</text><text x="962" y="291" font-size="8.5" fill="#5a6672" text-anchor="middle">D83</text><line x1="1044" y1="180" x2="1044" y2="108" stroke="#b5322f" stroke-width="1"/><polygon points="1044,174 1050,180 1044,186 1038,180" fill="#b5322f" stroke="#fff" stroke-width="1"/><text x="1044" y="105" font-size="9.5" fill="#1a1a1a" text-anchor="middle">Day 30 review</text><text x="1044" y="117" font-size="8.5" fill="#5a6672" text-anchor="middle">D99</text><line x1="1126" y1="180" x2="1126" y2="68" stroke="#b5322f" stroke-width="1"/><polygon points="1126,174 1132,180 1126,186 1120,180" fill="#b5322f" stroke="#fff" stroke-width="1"/><text x="1126" y="65" font-size="9.5" fill="#1a1a1a" text-anchor="middle">Day 45 checkpoint</text><text x="1126" y="77" font-size="8.5" fill="#5a6672" text-anchor="middle">D114</text><line x1="1208" y1="180" x2="1208" y2="238" stroke="#b5322f" stroke-width="1"/><polygon points="1208,174 1214,180 1208,186 1202,180" fill="#b5322f" stroke="#fff" stroke-width="1"/><text x="1208" y="240" font-size="9.5" fill="#1a1a1a" text-anchor="middle">Day 60 review</text><text x="1208" y="251" font-size="8.5" fill="#5a6672" text-anchor="middle">D129</text><line x1="1290" y1="180" x2="1290" y2="278" stroke="#b5322f" stroke-width="1"/><polygon points="1290,174 1296,180 1290,186 1284,180" fill="#b5322f" stroke="#fff" stroke-width="1"/><text x="1290" y="280" font-size="9.5" fill="#1a1a1a" text-anchor="middle">Day 75 checkpoint</text><text x="1290" y="291" font-size="8.5" fill="#5a6672" text-anchor="middle">D144</text><line x1="1372" y1="180" x2="1372" y2="108" stroke="#b5322f" stroke-width="1"/><polygon points="1372,174 1378,180 1372,186 1366,180" fill="#b5322f" stroke="#fff" stroke-width="1"/><text x="1372" y="105" font-size="9.5" fill="#1a1a1a" text-anchor="middle">Day 90 decision</text><text x="1372" y="117" font-size="8.5" fill="#5a6672" text-anchor="middle">D159</text><rect x="30" y="321" width="14" height="10" fill="#1f2d3d" stroke="none" stroke-width="0"/><text x="50" y="330" font-size="10" fill="#1a1a1a" text-anchor="start">Stage A gate/milestone</text><rect x="230" y="321" width="14" height="10" fill="#b5322f" stroke="none" stroke-width="0"/><text x="250" y="330" font-size="10" fill="#1a1a1a" text-anchor="start">Launch &amp; live-campaign reviews</text></svg>