<svg xmlns="http://www.w3.org/2000/svg" viewBox="0 0 1026 510" width="1026" height="510" font-family="Arial, Helvetica, sans-serif"><rect width="1026" height="510" fill="#ffffff"/><text x="24" y="34" font-size="20" fill="#1a1a1a" text-anchor="start" font-weight="bold">PERT Network — Stage B (Live Campaign)</text><text x="24" y="54" font-size="11" fill="#5a6672" text-anchor="start">Activity-on-node. Left-to-right by early start. Red = critical (thick border + CRIT). Rows = workstream. Durations in live days.</text><rect x="24" y="92" width="978" height="54" fill="#ffffff" stroke="none" stroke-width="0"/><text x="30" y="122" font-size="10" fill="#5a6672" text-anchor="start" font-weight="bold">Live</text><rect x="24" y="146" width="978" height="54" fill="#f6f8fa" stroke="none" stroke-width="0"/><text x="30" y="176" font-size="10" fill="#5a6672" text-anchor="start" font-weight="bold">Review</text><rect x="24" y="200" width="978" height="54" fill="#ffffff" stroke="none" stroke-width="0"/><text x="30" y="230" font-size="10" fill="#5a6672" text-anchor="start" font-weight="bold">Optimise</text><rect x="24" y="254" width="978" height="54" fill="#f6f8fa" stroke="none" stroke-width="0"/><text x="30" y="284" font-size="10" fill="#5a6672" text-anchor="start" font-weight="bold">SEO</text><rect x="24" y="308" width="978" height="54" fill="#ffffff" stroke="none" stroke-width="0"/><text x="30" y="338" font-size="10" fill="#5a6672" text-anchor="start" font-weight="bold">Partner</text><rect x="24" y="362" width="978" height="54" fill="#f6f8fa" stroke="none" stroke-width="0"/><text x="30" y="392" font-size="10" fill="#5a6672" text-anchor="start" font-weight="bold">CRM</text><rect x="24" y="416" width="978" height="54" fill="#ffffff" stroke="none" stroke-width="0"/><text x="30" y="446" font-size="10" fill="#5a6672" text-anchor="start" font-weight="bold">Paid Social</text><line x1="142" y1="119" x2="170" y2="119" stroke="#b5322f" stroke-width="2"/><line x1="142" y1="119" x2="502" y2="227" stroke="#b5322f" stroke-width="2"/><line x1="142" y1="119" x2="502" y2="227" stroke="#b5322f" stroke-width="2"/><line x1="142" y1="119" x2="502" y2="281" stroke="#b5322f" stroke-width="2"/><line x1="142" y1="119" x2="502" y2="335" stroke="#b5322f" stroke-width="2"/><line x1="142" y1="119" x2="502" y2="389" stroke="#b5322f" stroke-width="2"/><line x1="170" y1="119" x2="198" y2="173" stroke="#b5322f" stroke-width="2"/><line x1="198" y1="173" x2="226" y2="119" stroke="#b5322f" stroke-width="2"/><line x1="226" y1="119" x2="254" y2="173" stroke="#b5322f" stroke-width="2"/><line x1="254" y1="173" x2="318" y2="119" stroke="#b5322f" stroke-width="2"/><line x1="318" y1="119" x2="382" y2="173" stroke="#b5322f" stroke-width="2"/><line x1="382" y1="173" x2="442" y2="119" stroke="#b5322f" stroke-width="2"/><line x1="382" y1="173" x2="622" y2="443" stroke="#b5322f" stroke-width="2"/><line x1="442" y1="119" x2="502" y2="173" stroke="#b5322f" stroke-width="2"/><line x1="502" y1="173" x2="562" y2="119" stroke="#b5322f" stroke-width="2"/><line x1="562" y1="119" x2="622" y2="173" stroke="#b5322f" stroke-width="2"/><line x1="622" y1="173" x2="682" y2="119" stroke="#b5322f" stroke-width="2"/><line x1="682" y1="119" x2="742" y2="173" stroke="#b5322f" stroke-width="2"/><line x1="742" y1="173" x2="802" y2="119" stroke="#b5322f" stroke-width="2"/><line x1="802" y1="119" x2="862" y2="173" stroke="#b5322f" stroke-width="2"/><polygon points="142,106 155,119 142,132 129,119" fill="#1f2d3d" stroke="#fff" stroke-width="1"/><text x="142" y="122" font-size="8" fill="#fff" text-anchor="middle" font-weight="bold">B0</text><rect x="143" y="106" width="54" height="26" fill="#fff" stroke="#b5322f" stroke-width="2.5" rx="2"/><text x="170" y="117" font-size="9" fill="#b5322f" text-anchor="middle" font-weight="bold">B1</text><text x="170" y="128" font-size="8" fill="#5a6672" text-anchor="middle">7d •</text><rect x="475" y="214" width="54" height="26" fill="#fff" stroke="#b5322f" stroke-width="2.5" rx="2"/><text x="502" y="225" font-size="9" fill="#b5322f" text-anchor="middle" font-weight="bold">B8</text><text x="502" y="236" font-size="8" fill="#5a6672" text-anchor="middle">90d •</text><rect x="475" y="214" width="54" height="26" fill="#fff" stroke="#b5322f" stroke-width="2.5" rx="2"/><text x="502" y="225" font-size="9" fill="#b5322f" text-anchor="middle" font-weight="bold">B9</text><text x="502" y="236" font-size="8" fill="#5a6672" text-anchor="middle">90d •</text><rect x="475" y="268" width="54" height="26" fill="#fff" stroke="#b5322f" stroke-width="2.5" rx="2"/><text x="502" y="279" font-size="9" fill="#b5322f" text-anchor="middle" font-weight="bold">B10</text><text x="502" y="290" font-size="8" fill="#5a6672" text-anchor="middle">90d •</text><rect x="475" y="322" width="54" height="26" fill="#fff" stroke="#b5322f" stroke-width="2.5" rx="2"/><text x="502" y="333" font-size="9" fill="#b5322f" text-anchor="middle" font-weight="bold">B11</text><text x="502" y="344" font-size="8" fill="#5a6672" text-anchor="middle">90d •</text><rect x="475" y="376" width="54" height="26" fill="#fff" stroke="#b5322f" stroke-width="2.5" rx="2"/><text x="502" y="387" font-size="9" fill="#b5322f" text-anchor="middle" font-weight="bold">B12</text><text x="502" y="398" font-size="8" fill="#5a6672" text-anchor="middle">90d •</text><polygon points="198,160 211,173 198,186 185,173" fill="#1f2d3d" stroke="#fff" stroke-width="1"/><text x="198" y="176" font-size="8" fill="#fff" text-anchor="middle" font-weight="bold">MB7</text><rect x="199" y="106" width="54" height="26" fill="#fff" stroke="#b5322f" stroke-width="2.5" rx="2"/><text x="226" y="117" font-size="9" fill="#b5322f" text-anchor="middle" font-weight="bold">B2</text><text x="226" y="128" font-size="8" fill="#5a6672" text-anchor="middle">7d •</text><polygon points="254,160 267,173 254,186 241,173" fill="#1f2d3d" stroke="#fff" stroke-width="1"/><text x="254" y="176" font-size="8" fill="#fff" text-anchor="middle" font-weight="bold">MB14</text><rect x="291" y="106" width="54" height="26" fill="#fff" stroke="#b5322f" stroke-width="2.5" rx="2"/><text x="318" y="117" font-size="9" fill="#b5322f" text-anchor="middle" font-weight="bold">B3</text><text x="318" y="128" font-size="8" fill="#5a6672" text-anchor="middle">16d •</text><polygon points="382,160 395,173 382,186 369,173" fill="#1f2d3d" stroke="#fff" stroke-width="1"/><text x="382" y="176" font-size="8" fill="#fff" text-anchor="middle" font-weight="bold">MB30</text><rect x="415" y="106" width="54" height="26" fill="#fff" stroke="#b5322f" stroke-width="2.5" rx="2"/><text x="442" y="117" font-size="9" fill="#b5322f" text-anchor="middle" font-weight="bold">B4</text><text x="442" y="128" font-size="8" fill="#5a6672" text-anchor="middle">15d •</text><rect x="595" y="430" width="54" height="26" fill="#fff" stroke="#b5322f" stroke-width="2.5" rx="2"/><text x="622" y="441" font-size="9" fill="#b5322f" text-anchor="middle" font-weight="bold">B13</text><text x="622" y="452" font-size="8" fill="#5a6672" text-anchor="middle">60d •</text><polygon points="502,160 515,173 502,186 489,173" fill="#1f2d3d" stroke="#fff" stroke-width="1"/><text x="502" y="176" font-size="8" fill="#fff" text-anchor="middle" font-weight="bold">MB45</text><rect x="535" y="106" width="54" height="26" fill="#fff" stroke="#b5322f" stroke-width="2.5" rx="2"/><text x="562" y="117" font-size="9" fill="#b5322f" text-anchor="middle" font-weight="bold">B5</text><text x="562" y="128" font-size="8" fill="#5a6672" text-anchor="middle">15d •</text><polygon points="622,160 635,173 622,186 609,173" fill="#1f2d3d" stroke="#fff" stroke-width="1"/><text x="622" y="176" font-size="8" fill="#fff" text-anchor="middle" font-weight="bold">MB60</text><rect x="655" y="106" width="54" height="26" fill="#fff" stroke="#b5322f" stroke-width="2.5" rx="2"/><text x="682" y="117" font-size="9" fill="#b5322f" text-anchor="middle" font-weight="bold">B6</text><text x="682" y="128" font-size="8" fill="#5a6672" text-anchor="middle">15d •</text><polygon points="742,160 755,173 742,186 729,173" fill="#1f2d3d" stroke="#fff" stroke-width="1"/><text x="742" y="176" font-size="8" fill="#fff" text-anchor="middle" font-weight="bold">MB75</text><rect x="775" y="106" width="54" height="26" fill="#fff" stroke="#b5322f" stroke-width="2.5" rx="2"/><text x="802" y="117" font-size="9" fill="#b5322f" text-anchor="middle" font-weight="bold">B7</text><text x="802" y="128" font-size="8" fill="#5a6672" text-anchor="middle">15d •</text><polygon points="862,160 875,173 862,186 849,173" fill="#1f2d3d" stroke="#fff" stroke-width="1"/><text x="862" y="176" font-size="8" fill="#fff" text-anchor="middle" font-weight="bold">MB90</text></svg>