<svg xmlns="http://www.w3.org/2000/svg" viewBox="0 0 1482 780" width="1482" height="780" font-family="Arial, Helvetica, sans-serif"><rect width="1482" height="780" fill="#ffffff"/><text x="24" y="34" font-size="20" fill="#1a1a1a" text-anchor="start" font-weight="bold">PERT Network — Stage A (Preparation)</text><text x="24" y="54" font-size="11" fill="#5a6672" text-anchor="start">Activity-on-node. Left-to-right by early start. Red = critical (thick border + CRIT). Rows = workstream. Durations in working days.</text><rect x="24" y="92" width="1434" height="54" fill="#ffffff" stroke="none" stroke-width="0"/><text x="30" y="122" font-size="10" fill="#5a6672" text-anchor="start" font-weight="bold">Initiation</text><rect x="24" y="146" width="1434" height="54" fill="#f6f8fa" stroke="none" stroke-width="0"/><text x="30" y="176" font-size="10" fill="#5a6672" text-anchor="start" font-weight="bold">Discovery</text><rect x="24" y="200" width="1434" height="54" fill="#ffffff" stroke="none" stroke-width="0"/><text x="30" y="230" font-size="10" fill="#5a6672" text-anchor="start" font-weight="bold">Compliance</text><rect x="24" y="254" width="1434" height="54" fill="#f6f8fa" stroke="none" stroke-width="0"/><text x="30" y="284" font-size="10" fill="#5a6672" text-anchor="start" font-weight="bold">Strategy</text><rect x="24" y="308" width="1434" height="54" fill="#ffffff" stroke="none" stroke-width="0"/><text x="30" y="338" font-size="10" fill="#5a6672" text-anchor="start" font-weight="bold">Website</text><rect x="24" y="362" width="1434" height="54" fill="#f6f8fa" stroke="none" stroke-width="0"/><text x="30" y="392" font-size="10" fill="#5a6672" text-anchor="start" font-weight="bold">Tracking</text><rect x="24" y="416" width="1434" height="54" fill="#ffffff" stroke="none" stroke-width="0"/><text x="30" y="446" font-size="10" fill="#5a6672" text-anchor="start" font-weight="bold">CRM</text><rect x="24" y="470" width="1434" height="54" fill="#f6f8fa" stroke="none" stroke-width="0"/><text x="30" y="500" font-size="10" fill="#5a6672" text-anchor="start" font-weight="bold">Paid Search</text><rect x="24" y="524" width="1434" height="54" fill="#ffffff" stroke="none" stroke-width="0"/><text x="30" y="554" font-size="10" fill="#5a6672" text-anchor="start" font-weight="bold">SEO</text><rect x="24" y="578" width="1434" height="54" fill="#f6f8fa" stroke="none" stroke-width="0"/><text x="30" y="608" font-size="10" fill="#5a6672" text-anchor="start" font-weight="bold">Partner</text><rect x="24" y="632" width="1434" height="54" fill="#ffffff" stroke="none" stroke-width="0"/><text x="30" y="662" font-size="10" fill="#5a6672" text-anchor="start" font-weight="bold">Testing</text><rect x="24" y="686" width="1434" height="54" fill="#f6f8fa" stroke="none" stroke-width="0"/><text x="30" y="716" font-size="10" fill="#5a6672" text-anchor="start" font-weight="bold">Launch</text><line x1="142" y1="119" x2="166" y2="119" stroke="#b5322f" stroke-width="2"/><line x1="166" y1="119" x2="202" y2="119" stroke="#b5322f" stroke-width="2"/><line x1="166" y1="119" x2="226" y2="119" stroke="#b7c0c9" stroke-width="1"/><line x1="166" y1="119" x2="310" y2="119" stroke="#b7c0c9" stroke-width="1"/><line x1="166" y1="119" x2="226" y2="281" stroke="#b7c0c9" stroke-width="1"/><line x1="166" y1="119" x2="286" y2="173" stroke="#b5322f" stroke-width="2"/><line x1="202" y1="119" x2="286" y2="173" stroke="#b5322f" stroke-width="2"/><line x1="310" y1="119" x2="550" y2="497" stroke="#b7c0c9" stroke-width="1"/><line x1="286" y1="173" x2="394" y2="227" stroke="#b5322f" stroke-width="2"/><line x1="286" y1="173" x2="382" y2="281" stroke="#b5322f" stroke-width="2"/><line x1="286" y1="173" x2="430" y2="443" stroke="#b7c0c9" stroke-width="1"/><line x1="394" y1="227" x2="502" y2="227" stroke="#b5322f" stroke-width="2"/><line x1="394" y1="227" x2="454" y2="227" stroke="#b7c0c9" stroke-width="1"/><line x1="394" y1="227" x2="466" y2="227" stroke="#b7c0c9" stroke-width="1"/><line x1="382" y1="281" x2="430" y2="281" stroke="#b5322f" stroke-width="2"/><line x1="382" y1="281" x2="430" y2="281" stroke="#b7c0c9" stroke-width="1"/><line x1="502" y1="227" x2="610" y2="227" stroke="#b5322f" stroke-width="2"/><line x1="430" y1="281" x2="490" y2="281" stroke="#b5322f" stroke-width="2"/><line x1="502" y1="227" x2="646" y2="227" stroke="#b5322f" stroke-width="2"/><line x1="454" y1="227" x2="646" y2="227" stroke="#b7c0c9" stroke-width="1"/><line x1="610" y1="227" x2="646" y2="227" stroke="#b5322f" stroke-width="2"/><line x1="466" y1="227" x2="646" y2="227" stroke="#b7c0c9" stroke-width="1"/><line x1="490" y1="281" x2="550" y2="281" stroke="#b5322f" stroke-width="2"/><line x1="646" y1="227" x2="682" y2="443" stroke="#b7c0c9" stroke-width="1"/><line x1="430" y1="443" x2="682" y2="443" stroke="#b7c0c9" stroke-width="1"/><line x1="646" y1="227" x2="742" y2="551" stroke="#b7c0c9" stroke-width="1"/><line x1="646" y1="227" x2="718" y2="605" stroke="#b7c0c9" stroke-width="1"/><line x1="430" y1="281" x2="574" y2="281" stroke="#b5322f" stroke-width="2"/><line x1="226" y1="281" x2="574" y2="281" stroke="#b7c0c9" stroke-width="1"/><line x1="550" y1="281" x2="574" y2="281" stroke="#b5322f" stroke-width="2"/><line x1="430" y1="281" x2="574" y2="281" stroke="#b7c0c9" stroke-width="1"/><line x1="430" y1="443" x2="742" y2="443" stroke="#b7c0c9" stroke-width="1"/><line x1="682" y1="443" x2="742" y2="443" stroke="#b7c0c9" stroke-width="1"/><line x1="574" y1="281" x2="610" y2="335" stroke="#b5322f" stroke-width="2"/><line x1="574" y1="281" x2="598" y2="389" stroke="#b7c0c9" stroke-width="1"/><line x1="550" y1="281" x2="598" y2="497" stroke="#b7c0c9" stroke-width="1"/><line x1="574" y1="281" x2="598" y2="497" stroke="#b7c0c9" stroke-width="1"/><line x1="742" y1="443" x2="766" y2="443" stroke="#b7c0c9" stroke-width="1"/><line x1="610" y1="335" x2="718" y2="335" stroke="#b5322f" stroke-width="2"/><line x1="646" y1="227" x2="718" y2="335" stroke="#b5322f" stroke-width="2"/><line x1="226" y1="119" x2="718" y2="335" stroke="#b7c0c9" stroke-width="1"/><line x1="598" y1="389" x2="658" y2="389" stroke="#b7c0c9" stroke-width="1"/><line x1="310" y1="119" x2="658" y2="389" stroke="#b7c0c9" stroke-width="1"/><line x1="598" y1="497" x2="682" y2="497" stroke="#b7c0c9" stroke-width="1"/><line x1="646" y1="227" x2="682" y2="497" stroke="#b7c0c9" stroke-width="1"/><line x1="718" y1="335" x2="922" y2="335" stroke="#b5322f" stroke-width="2"/><line x1="718" y1="335" x2="826" y2="335" stroke="#b7c0c9" stroke-width="1"/><line x1="658" y1="389" x2="718" y2="389" stroke="#b7c0c9" stroke-width="1"/><line x1="682" y1="497" x2="766" y2="497" stroke="#b7c0c9" stroke-width="1"/><line x1="922" y1="335" x2="1078" y2="335" stroke="#b5322f" stroke-width="2"/><line x1="826" y1="335" x2="1078" y2="335" stroke="#b7c0c9" stroke-width="1"/><line x1="718" y1="389" x2="766" y2="389" stroke="#b7c0c9" stroke-width="1"/><line x1="1078" y1="335" x2="1102" y2="335" stroke="#b5322f" stroke-width="2"/><line x1="766" y1="389" x2="1126" y2="389" stroke="#b7c0c9" stroke-width="1"/><line x1="1102" y1="335" x2="1126" y2="389" stroke="#b5322f" stroke-width="2"/><line x1="1126" y1="389" x2="1150" y2="389" stroke="#b5322f" stroke-width="2"/><line x1="766" y1="497" x2="1186" y2="497" stroke="#b7c0c9" stroke-width="1"/><line x1="1150" y1="389" x2="1186" y2="497" stroke="#b5322f" stroke-width="2"/><line x1="1186" y1="497" x2="1222" y2="497" stroke="#b5322f" stroke-width="2"/><line x1="550" y1="497" x2="1222" y2="497" stroke="#b7c0c9" stroke-width="1"/><line x1="1102" y1="335" x2="1258" y2="659" stroke="#b5322f" stroke-width="2"/><line x1="1150" y1="389" x2="1258" y2="659" stroke="#b5322f" stroke-width="2"/><line x1="766" y1="443" x2="1258" y2="659" stroke="#b7c0c9" stroke-width="1"/><line x1="1222" y1="497" x2="1258" y2="659" stroke="#b5322f" stroke-width="2"/><line x1="1258" y1="659" x2="1306" y2="659" stroke="#b5322f" stroke-width="2"/><line x1="1306" y1="659" x2="1318" y2="713" stroke="#b5322f" stroke-width="2"/><line x1="742" y1="551" x2="1318" y2="713" stroke="#b7c0c9" stroke-width="1"/><line x1="718" y1="605" x2="1318" y2="713" stroke="#b7c0c9" stroke-width="1"/><rect x="115" y="106" width="54" height="26" fill="#fff" stroke="#b5322f" stroke-width="2.5" rx="2"/><text x="142" y="117" font-size="9" fill="#b5322f" text-anchor="middle" font-weight="bold">A0</text><text x="142" y="128" font-size="8" fill="#5a6672" text-anchor="middle">0d •</text><rect x="139" y="106" width="54" height="26" fill="#fff" stroke="#b5322f" stroke-width="2.5" rx="2"/><text x="166" y="117" font-size="9" fill="#b5322f" text-anchor="middle" font-weight="bold">A1</text><text x="166" y="128" font-size="8" fill="#5a6672" text-anchor="middle">2d •</text><rect x="175" y="106" width="54" height="26" fill="#fff" stroke="#b5322f" stroke-width="2.5" rx="2"/><text x="202" y="117" font-size="9" fill="#b5322f" text-anchor="middle" font-weight="bold">A2</text><text x="202" y="128" font-size="8" fill="#5a6672" text-anchor="middle">1d •</text><rect x="199" y="106" width="54" height="26" fill="#fff" stroke="#3f6690" stroke-width="1.2" rx="2"/><text x="226" y="117" font-size="9" fill="#1a1a1a" text-anchor="middle" font-weight="bold">A3</text><text x="226" y="128" font-size="8" fill="#5a6672" text-anchor="middle">3d</text><rect x="283" y="106" width="54" height="26" fill="#fff" stroke="#3f6690" stroke-width="1.2" rx="2"/><text x="310" y="117" font-size="9" fill="#1a1a1a" text-anchor="middle" font-weight="bold">A4</text><text x="310" y="128" font-size="8" fill="#5a6672" text-anchor="middle">10d</text><rect x="199" y="268" width="54" height="26" fill="#fff" stroke="#3f6690" stroke-width="1.2" rx="2"/><text x="226" y="279" font-size="9" fill="#1a1a1a" text-anchor="middle" font-weight="bold">A13</text><text x="226" y="290" font-size="8" fill="#5a6672" text-anchor="middle">3d</text><rect x="259" y="160" width="54" height="26" fill="#fff" stroke="#b5322f" stroke-width="2.5" rx="2"/><text x="286" y="171" font-size="9" fill="#b5322f" text-anchor="middle" font-weight="bold">A5</text><text x="286" y="182" font-size="8" fill="#5a6672" text-anchor="middle">6d •</text><rect x="523" y="484" width="54" height="26" fill="#fff" stroke="#3f6690" stroke-width="1.2" rx="2"/><text x="550" y="495" font-size="9" fill="#1a1a1a" text-anchor="middle" font-weight="bold">A34</text><text x="550" y="506" font-size="8" fill="#5a6672" text-anchor="middle">10d</text><rect x="367" y="214" width="54" height="26" fill="#fff" stroke="#b5322f" stroke-width="2.5" rx="2"/><text x="394" y="225" font-size="9" fill="#b5322f" text-anchor="middle" font-weight="bold">A6</text><text x="394" y="236" font-size="8" fill="#5a6672" text-anchor="middle">3d •</text><rect x="355" y="268" width="54" height="26" fill="#fff" stroke="#b5322f" stroke-width="2.5" rx="2"/><text x="382" y="279" font-size="9" fill="#b5322f" text-anchor="middle" font-weight="bold">A11</text><text x="382" y="290" font-size="8" fill="#5a6672" text-anchor="middle">2d •</text><rect x="403" y="430" width="54" height="26" fill="#fff" stroke="#3f6690" stroke-width="1.2" rx="2"/><text x="430" y="441" font-size="9" fill="#1a1a1a" text-anchor="middle" font-weight="bold">A27</text><text x="430" y="452" font-size="8" fill="#5a6672" text-anchor="middle">6d</text><rect x="475" y="214" width="54" height="26" fill="#fff" stroke="#b5322f" stroke-width="2.5" rx="2"/><text x="502" y="225" font-size="9" fill="#b5322f" text-anchor="middle" font-weight="bold">A7</text><text x="502" y="236" font-size="8" fill="#5a6672" text-anchor="middle">6d •</text><rect x="427" y="214" width="54" height="26" fill="#fff" stroke="#3f6690" stroke-width="1.2" rx="2"/><text x="454" y="225" font-size="9" fill="#1a1a1a" text-anchor="middle" font-weight="bold">A8</text><text x="454" y="236" font-size="8" fill="#5a6672" text-anchor="middle">2d</text><rect x="439" y="214" width="54" height="26" fill="#fff" stroke="#3f6690" stroke-width="1.2" rx="2"/><text x="466" y="225" font-size="9" fill="#1a1a1a" text-anchor="middle" font-weight="bold">A10</text><text x="466" y="236" font-size="8" fill="#5a6672" text-anchor="middle">3d</text><rect x="403" y="268" width="54" height="26" fill="#fff" stroke="#b5322f" stroke-width="2.5" rx="2"/><text x="430" y="279" font-size="9" fill="#b5322f" text-anchor="middle" font-weight="bold">A12</text><text x="430" y="290" font-size="8" fill="#5a6672" text-anchor="middle">2d •</text><rect x="403" y="268" width="54" height="26" fill="#fff" stroke="#3f6690" stroke-width="1.2" rx="2"/><text x="430" y="279" font-size="9" fill="#1a1a1a" text-anchor="middle" font-weight="bold">A16</text><text x="430" y="290" font-size="8" fill="#5a6672" text-anchor="middle">2d</text><rect x="583" y="214" width="54" height="26" fill="#fff" stroke="#b5322f" stroke-width="2.5" rx="2"/><text x="610" y="225" font-size="9" fill="#b5322f" text-anchor="middle" font-weight="bold">A9</text><text x="610" y="236" font-size="8" fill="#5a6672" text-anchor="middle">3d •</text><rect x="463" y="268" width="54" height="26" fill="#fff" stroke="#b5322f" stroke-width="2.5" rx="2"/><text x="490" y="279" font-size="9" fill="#b5322f" text-anchor="middle" font-weight="bold">A14</text><text x="490" y="290" font-size="8" fill="#5a6672" text-anchor="middle">3d •</text><polygon points="646,214 659,227 646,240 633,227" fill="#1f2d3d" stroke="#fff" stroke-width="1"/><text x="646" y="230" font-size="8" fill="#fff" text-anchor="middle" font-weight="bold">M1</text><rect x="523" y="268" width="54" height="26" fill="#fff" stroke="#b5322f" stroke-width="2.5" rx="2"/><text x="550" y="279" font-size="9" fill="#b5322f" text-anchor="middle" font-weight="bold">A15</text><text x="550" y="290" font-size="8" fill="#5a6672" text-anchor="middle">2d •</text><rect x="655" y="430" width="54" height="26" fill="#fff" stroke="#3f6690" stroke-width="1.2" rx="2"/><text x="682" y="441" font-size="9" fill="#1a1a1a" text-anchor="middle" font-weight="bold">A28</text><text x="682" y="452" font-size="8" fill="#5a6672" text-anchor="middle">3d</text><rect x="715" y="538" width="54" height="26" fill="#fff" stroke="#3f6690" stroke-width="1.2" rx="2"/><text x="742" y="549" font-size="9" fill="#1a1a1a" text-anchor="middle" font-weight="bold">A35</text><text x="742" y="560" font-size="8" fill="#5a6672" text-anchor="middle">8d</text><rect x="691" y="592" width="54" height="26" fill="#fff" stroke="#3f6690" stroke-width="1.2" rx="2"/><text x="718" y="603" font-size="9" fill="#1a1a1a" text-anchor="middle" font-weight="bold">A36</text><text x="718" y="614" font-size="8" fill="#5a6672" text-anchor="middle">6d</text><polygon points="574,268 587,281 574,294 561,281" fill="#1f2d3d" stroke="#fff" stroke-width="1"/><text x="574" y="284" font-size="8" fill="#fff" text-anchor="middle" font-weight="bold">M2</text><rect x="715" y="430" width="54" height="26" fill="#fff" stroke="#3f6690" stroke-width="1.2" rx="2"/><text x="742" y="441" font-size="9" fill="#1a1a1a" text-anchor="middle" font-weight="bold">A29</text><text x="742" y="452" font-size="8" fill="#5a6672" text-anchor="middle">2d</text><rect x="583" y="322" width="54" height="26" fill="#fff" stroke="#b5322f" stroke-width="2.5" rx="2"/><text x="610" y="333" font-size="9" fill="#b5322f" text-anchor="middle" font-weight="bold">A17</text><text x="610" y="344" font-size="8" fill="#5a6672" text-anchor="middle">3d •</text><rect x="571" y="376" width="54" height="26" fill="#fff" stroke="#3f6690" stroke-width="1.2" rx="2"/><text x="598" y="387" font-size="9" fill="#1a1a1a" text-anchor="middle" font-weight="bold">A22</text><text x="598" y="398" font-size="8" fill="#5a6672" text-anchor="middle">2d</text><rect x="571" y="484" width="54" height="26" fill="#fff" stroke="#3f6690" stroke-width="1.2" rx="2"/><text x="598" y="495" font-size="9" fill="#1a1a1a" text-anchor="middle" font-weight="bold">A30</text><text x="598" y="506" font-size="8" fill="#5a6672" text-anchor="middle">2d</text><polygon points="766,430 779,443 766,456 753,443" fill="#1f2d3d" stroke="#fff" stroke-width="1"/><text x="766" y="446" font-size="8" fill="#fff" text-anchor="middle" font-weight="bold">M5</text><rect x="691" y="322" width="54" height="26" fill="#fff" stroke="#b5322f" stroke-width="2.5" rx="2"/><text x="718" y="333" font-size="9" fill="#b5322f" text-anchor="middle" font-weight="bold">A18</text><text x="718" y="344" font-size="8" fill="#5a6672" text-anchor="middle">6d •</text><rect x="631" y="376" width="54" height="26" fill="#fff" stroke="#3f6690" stroke-width="1.2" rx="2"/><text x="658" y="387" font-size="9" fill="#1a1a1a" text-anchor="middle" font-weight="bold">A23</text><text x="658" y="398" font-size="8" fill="#5a6672" text-anchor="middle">3d</text><rect x="655" y="484" width="54" height="26" fill="#fff" stroke="#3f6690" stroke-width="1.2" rx="2"/><text x="682" y="495" font-size="9" fill="#1a1a1a" text-anchor="middle" font-weight="bold">A31</text><text x="682" y="506" font-size="8" fill="#5a6672" text-anchor="middle">3d</text><rect x="895" y="322" width="54" height="26" fill="#fff" stroke="#b5322f" stroke-width="2.5" rx="2"/><text x="922" y="333" font-size="9" fill="#b5322f" text-anchor="middle" font-weight="bold">A19</text><text x="922" y="344" font-size="8" fill="#5a6672" text-anchor="middle">11d •</text><rect x="799" y="322" width="54" height="26" fill="#fff" stroke="#3f6690" stroke-width="1.2" rx="2"/><text x="826" y="333" font-size="9" fill="#1a1a1a" text-anchor="middle" font-weight="bold">A20</text><text x="826" y="344" font-size="8" fill="#5a6672" text-anchor="middle">3d</text><rect x="691" y="376" width="54" height="26" fill="#fff" stroke="#3f6690" stroke-width="1.2" rx="2"/><text x="718" y="387" font-size="9" fill="#1a1a1a" text-anchor="middle" font-weight="bold">A24</text><text x="718" y="398" font-size="8" fill="#5a6672" text-anchor="middle">2d</text><rect x="739" y="484" width="54" height="26" fill="#fff" stroke="#3f6690" stroke-width="1.2" rx="2"/><text x="766" y="495" font-size="9" fill="#1a1a1a" text-anchor="middle" font-weight="bold">A32</text><text x="766" y="506" font-size="8" fill="#5a6672" text-anchor="middle">4d</text><rect x="1051" y="322" width="54" height="26" fill="#fff" stroke="#b5322f" stroke-width="2.5" rx="2"/><text x="1078" y="333" font-size="9" fill="#b5322f" text-anchor="middle" font-weight="bold">A21</text><text x="1078" y="344" font-size="8" fill="#5a6672" text-anchor="middle">2d •</text><rect x="739" y="376" width="54" height="26" fill="#fff" stroke="#3f6690" stroke-width="1.2" rx="2"/><text x="766" y="387" font-size="9" fill="#1a1a1a" text-anchor="middle" font-weight="bold">A25</text><text x="766" y="398" font-size="8" fill="#5a6672" text-anchor="middle">2d</text><polygon points="1102,322 1115,335 1102,348 1089,335" fill="#1f2d3d" stroke="#fff" stroke-width="1"/><text x="1102" y="338" font-size="8" fill="#fff" text-anchor="middle" font-weight="bold">M3</text><rect x="1099" y="376" width="54" height="26" fill="#fff" stroke="#b5322f" stroke-width="2.5" rx="2"/><text x="1126" y="387" font-size="9" fill="#b5322f" text-anchor="middle" font-weight="bold">A26</text><text x="1126" y="398" font-size="8" fill="#5a6672" text-anchor="middle">2d •</text><polygon points="1150,376 1163,389 1150,402 1137,389" fill="#1f2d3d" stroke="#fff" stroke-width="1"/><text x="1150" y="392" font-size="8" fill="#fff" text-anchor="middle" font-weight="bold">M4</text><rect x="1159" y="484" width="54" height="26" fill="#fff" stroke="#b5322f" stroke-width="2.5" rx="2"/><text x="1186" y="495" font-size="9" fill="#b5322f" text-anchor="middle" font-weight="bold">A33</text><text x="1186" y="506" font-size="8" fill="#5a6672" text-anchor="middle">3d •</text><polygon points="1222,484 1235,497 1222,510 1209,497" fill="#1f2d3d" stroke="#fff" stroke-width="1"/><text x="1222" y="500" font-size="8" fill="#fff" text-anchor="middle" font-weight="bold">M6</text><rect x="1231" y="646" width="54" height="26" fill="#fff" stroke="#b5322f" stroke-width="2.5" rx="2"/><text x="1258" y="657" font-size="9" fill="#b5322f" text-anchor="middle" font-weight="bold">A37</text><text x="1258" y="668" font-size="8" fill="#5a6672" text-anchor="middle">3d •</text><rect x="1279" y="646" width="54" height="26" fill="#fff" stroke="#b5322f" stroke-width="2.5" rx="2"/><text x="1306" y="657" font-size="9" fill="#b5322f" text-anchor="middle" font-weight="bold">A38</text><text x="1306" y="668" font-size="8" fill="#5a6672" text-anchor="middle">1d •</text><polygon points="1318,700 1331,713 1318,726 1305,713" fill="#1f2d3d" stroke="#fff" stroke-width="1"/><text x="1318" y="716" font-size="8" fill="#fff" text-anchor="middle" font-weight="bold">M7</text></svg>