<svg xmlns="http://www.w3.org/2000/svg" viewBox="0 0 1376.3999999999999 220" width="1376.3999999999999" height="220" font-family="Arial, Helvetica, sans-serif"><rect width="1376.3999999999999" height="220" fill="#ffffff"/><text x="24" y="34" font-size="19" fill="#1a1a1a" text-anchor="start" font-weight="bold">PERT Network — Programme Overview (milestone level)</text><text x="24" y="54" font-size="11" fill="#5a6672" text-anchor="start">Milestone-level critical spine. Full detail in PERT-STAGE-A.svg and PERT-STAGE-B.svg.</text><line x1="64" y1="130" x2="254" y2="130" stroke="#b5322f" stroke-width="2"/><line x1="254" y1="130" x2="284.4" y2="130" stroke="#b5322f" stroke-width="2"/><line x1="284.4" y1="130" x2="337.59999999999997" y2="130" stroke="#b5322f" stroke-width="2"/><line x1="337.59999999999997" y1="130" x2="489.59999999999997" y2="130" stroke="#b5322f" stroke-width="2"/><line x1="489.59999999999997" y1="130" x2="512.4" y2="130" stroke="#b5322f" stroke-width="2"/><line x1="512.4" y1="130" x2="542.8" y2="130" stroke="#b5322f" stroke-width="2"/><line x1="542.8" y1="130" x2="588.4" y2="130" stroke="#b5322f" stroke-width="2"/><line x1="588.4" y1="130" x2="816.4" y2="130" stroke="#b5322f" stroke-width="2"/><line x1="816.4" y1="130" x2="1044.4" y2="130" stroke="#b5322f" stroke-width="2"/><line x1="1044.4" y1="130" x2="1272.3999999999999" y2="130" stroke="#b5322f" stroke-width="2"/><polygon points="64,120 74,130 64,140 54,130" fill="#1f2d3d" stroke="#fff" stroke-width="1"/><text x="64" y="110" font-size="9.5" fill="#1a1a1a" text-anchor="middle">Auth</text><text x="64" y="156" font-size="8.5" fill="#5a6672" text-anchor="middle">D0</text><polygon points="254,120 264,130 254,140 244,130" fill="#1f2d3d" stroke="#fff" stroke-width="1"/><text x="254" y="110" font-size="9.5" fill="#1a1a1a" text-anchor="middle">Strategy</text><text x="254" y="156" font-size="8.5" fill="#5a6672" text-anchor="middle">D25</text><polygon points="284.4,120 294.4,130 284.4,140 274.4,130" fill="#1f2d3d" stroke="#fff" stroke-width="1"/><text x="284.4" y="110" font-size="9.5" fill="#1a1a1a" text-anchor="middle">Compliance</text><text x="284.4" y="156" font-size="8.5" fill="#5a6672" text-anchor="middle">D29</text><polygon points="337.59999999999997,120 347.59999999999997,130 337.59999999999997,140 327.59999999999997,130" fill="#1f2d3d" stroke="#fff" stroke-width="1"/><text x="337.59999999999997" y="110" font-size="9.5" fill="#1a1a1a" text-anchor="middle">Lead ready</text><text x="337.59999999999997" y="156" font-size="8.5" fill="#5a6672" text-anchor="middle">D36</text><polygon points="489.59999999999997,120 499.59999999999997,130 489.59999999999997,140 479.59999999999997,130" fill="#1f2d3d" stroke="#fff" stroke-width="1"/><text x="489.59999999999997" y="110" font-size="9.5" fill="#1a1a1a" text-anchor="middle">Pages</text><text x="489.59999999999997" y="156" font-size="8.5" fill="#5a6672" text-anchor="middle">D56</text><polygon points="512.4,120 522.4,130 512.4,140 502.4,130" fill="#1f2d3d" stroke="#fff" stroke-width="1"/><text x="512.4" y="110" font-size="9.5" fill="#1a1a1a" text-anchor="middle">Tracking</text><text x="512.4" y="156" font-size="8.5" fill="#5a6672" text-anchor="middle">D59</text><polygon points="542.8,120 552.8,130 542.8,140 532.8,130" fill="#1f2d3d" stroke="#fff" stroke-width="1"/><text x="542.8" y="110" font-size="9.5" fill="#1a1a1a" text-anchor="middle">Campaigns</text><text x="542.8" y="156" font-size="8.5" fill="#5a6672" text-anchor="middle">D63</text><polygon points="588.4,116 602.4,130 588.4,144 574.4,130" fill="#b5322f" stroke="#fff" stroke-width="1"/><text x="588.4" y="110" font-size="9.5" fill="#1a1a1a" text-anchor="middle" font-weight="bold">LAUNCH</text><text x="588.4" y="156" font-size="8.5" fill="#5a6672" text-anchor="middle">D69</text><polygon points="816.4,120 826.4,130 816.4,140 806.4,130" fill="#1f2d3d" stroke="#fff" stroke-width="1"/><text x="816.4" y="110" font-size="9.5" fill="#1a1a1a" text-anchor="middle">Day30</text><text x="816.4" y="156" font-size="8.5" fill="#5a6672" text-anchor="middle">D99</text><polygon points="1044.4,120 1054.4,130 1044.4,140 1034.4,130" fill="#1f2d3d" stroke="#fff" stroke-width="1"/><text x="1044.4" y="110" font-size="9.5" fill="#1a1a1a" text-anchor="middle">Day60</text><text x="1044.4" y="156" font-size="8.5" fill="#5a6672" text-anchor="middle">D129</text><polygon points="1272.3999999999999,120 1282.3999999999999,130 1272.3999999999999,140 1262.3999999999999,130" fill="#1f2d3d" stroke="#fff" stroke-width="1"/><text x="1272.3999999999999" y="110" font-size="9.5" fill="#1a1a1a" text-anchor="middle">Day90</text><text x="1272.3999999999999" y="156" font-size="8.5" fill="#5a6672" text-anchor="middle">D159</text></svg>