<svg xmlns="http://www.w3.org/2000/svg" viewBox="0 0 1414 200" width="1414" height="200" font-family="Arial, Helvetica, sans-serif"><rect width="1414" height="200" fill="#ffffff"/><text x="24" y="34" font-size="19" fill="#1a1a1a" text-anchor="start" font-weight="bold">PERT Network — Programme Overview (milestone level)</text><text x="24" y="54" font-size="11" fill="#5a6672" text-anchor="start">Milestone-level critical spine (even spacing, not to day-scale). Full detail in PERT-STAGE-A.svg and PERT-STAGE-B.svg.</text><line x1="64" y1="118" x2="192" y2="118" stroke="#b5322f" stroke-width="2"/><line x1="192" y1="118" x2="320" y2="118" stroke="#b5322f" stroke-width="2"/><line x1="320" y1="118" x2="448" y2="118" stroke="#b5322f" stroke-width="2"/><line x1="448" y1="118" x2="576" y2="118" stroke="#b5322f" stroke-width="2"/><line x1="576" y1="118" x2="704" y2="118" stroke="#b5322f" stroke-width="2"/><line x1="704" y1="118" x2="832" y2="118" stroke="#b5322f" stroke-width="2"/><line x1="832" y1="118" x2="960" y2="118" stroke="#b5322f" stroke-width="2"/><line x1="960" y1="118" x2="1088" y2="118" stroke="#b5322f" stroke-width="2"/><line x1="1088" y1="118" x2="1216" y2="118" stroke="#b5322f" stroke-width="2"/><line x1="1216" y1="118" x2="1344" y2="118" stroke="#b5322f" stroke-width="2"/><polygon points="64,108 74,118 64,128 54,118" fill="#1f2d3d" stroke="#fff" stroke-width="1"/><text x="64" y="96" font-size="10" fill="#1a1a1a" text-anchor="middle">Auth</text><text x="64" y="107" font-size="8.5" fill="#5a6672" text-anchor="middle">D0</text><polygon points="192,108 202,118 192,128 182,118" fill="#1f2d3d" stroke="#fff" stroke-width="1"/><text x="192" y="148" font-size="10" fill="#1a1a1a" text-anchor="middle">Strategy</text><text x="192" y="159" font-size="8.5" fill="#5a6672" text-anchor="middle">D25</text><polygon points="320,108 330,118 320,128 310,118" fill="#1f2d3d" stroke="#fff" stroke-width="1"/><text x="320" y="96" font-size="10" fill="#1a1a1a" text-anchor="middle">Compliance</text><text x="320" y="107" font-size="8.5" fill="#5a6672" text-anchor="middle">D29</text><polygon points="448,108 458,118 448,128 438,118" fill="#1f2d3d" stroke="#fff" stroke-width="1"/><text x="448" y="148" font-size="10" fill="#1a1a1a" text-anchor="middle">Lead ready</text><text x="448" y="159" font-size="8.5" fill="#5a6672" text-anchor="middle">D36</text><polygon points="576,108 586,118 576,128 566,118" fill="#1f2d3d" stroke="#fff" stroke-width="1"/><text x="576" y="96" font-size="10" fill="#1a1a1a" text-anchor="middle">Pages</text><text x="576" y="107" font-size="8.5" fill="#5a6672" text-anchor="middle">D56</text><polygon points="704,108 714,118 704,128 694,118" fill="#1f2d3d" stroke="#fff" stroke-width="1"/><text x="704" y="148" font-size="10" fill="#1a1a1a" text-anchor="middle">Tracking</text><text x="704" y="159" font-size="8.5" fill="#5a6672" text-anchor="middle">D59</text><polygon points="832,108 842,118 832,128 822,118" fill="#1f2d3d" stroke="#fff" stroke-width="1"/><text x="832" y="96" font-size="10" fill="#1a1a1a" text-anchor="middle">Campaigns</text><text x="832" y="107" font-size="8.5" fill="#5a6672" text-anchor="middle">D63</text><polygon points="960,105 973,118 960,131 947,118" fill="#b5322f" stroke="#fff" stroke-width="1"/><text x="960" y="148" font-size="10" fill="#1a1a1a" text-anchor="middle" font-weight="bold">LAUNCH</text><text x="960" y="159" font-size="8.5" fill="#5a6672" text-anchor="middle">D69</text><polygon points="1088,108 1098,118 1088,128 1078,118" fill="#1f2d3d" stroke="#fff" stroke-width="1"/><text x="1088" y="96" font-size="10" fill="#1a1a1a" text-anchor="middle">Day 30</text><text x="1088" y="107" font-size="8.5" fill="#5a6672" text-anchor="middle">D99</text><polygon points="1216,108 1226,118 1216,128 1206,118" fill="#1f2d3d" stroke="#fff" stroke-width="1"/><text x="1216" y="148" font-size="10" fill="#1a1a1a" text-anchor="middle">Day 60</text><text x="1216" y="159" font-size="8.5" fill="#5a6672" text-anchor="middle">D129</text><polygon points="1344,108 1354,118 1344,128 1334,118" fill="#1f2d3d" stroke="#fff" stroke-width="1"/><text x="1344" y="96" font-size="10" fill="#1a1a1a" text-anchor="middle">Day 90</text><text x="1344" y="107" font-size="8.5" fill="#5a6672" text-anchor="middle">D159</text></svg>