<svg xmlns="http://www.w3.org/2000/svg" viewBox="0 0 600 590" width="600" height="590" font-family="Arial, Helvetica, sans-serif"><rect width="600" height="590" fill="#ffffff"/><text x="30" y="32" font-size="20" fill="#1a1a1a" text-anchor="start" font-weight="bold">Risk Matrix (Probability × Impact)</text><rect x="120" y="380" width="150" height="150" fill="#dce7dc" stroke="#fff" stroke-width="2"/><rect x="270" y="380" width="150" height="150" fill="#dce7dc" stroke="#fff" stroke-width="2"/><rect x="420" y="380" width="150" height="150" fill="#f2e4c9" stroke="#fff" stroke-width="2"/><rect x="120" y="230" width="150" height="150" fill="#dce7dc" stroke="#fff" stroke-width="2"/><rect x="270" y="230" width="150" height="150" fill="#f2e4c9" stroke="#fff" stroke-width="2"/><rect x="420" y="230" width="150" height="150" fill="#e8c9c6" stroke="#fff" stroke-width="2"/><rect x="120" y="80" width="150" height="150" fill="#f2e4c9" stroke="#fff" stroke-width="2"/><rect x="270" y="80" width="150" height="150" fill="#e8c9c6" stroke="#fff" stroke-width="2"/><rect x="420" y="80" width="150" height="150" fill="#e8c9c6" stroke="#fff" stroke-width="2"/><text x="195" y="552" font-size="11" fill="#1a1a1a" text-anchor="middle" font-weight="bold">Impact: Low</text><text x="345" y="552" font-size="11" fill="#1a1a1a" text-anchor="middle" font-weight="bold">Impact: Med</text><text x="495" y="552" font-size="11" fill="#1a1a1a" text-anchor="middle" font-weight="bold">Impact: High</text><text x="110" y="455" font-size="11" fill="#1a1a1a" text-anchor="end" font-weight="bold">Prob: Low</text><text x="110" y="305" font-size="11" fill="#1a1a1a" text-anchor="end" font-weight="bold">Prob: Med</text><text x="110" y="155" font-size="11" fill="#1a1a1a" text-anchor="end" font-weight="bold">Prob: High</text><rect x="436" y="96" width="38" height="22" fill="#fff" stroke="#1a1a1a" stroke-width="1" rx="3"/><text x="455" y="111" font-size="10" fill="#1a1a1a" text-anchor="middle" font-weight="bold">R1</text><rect x="436" y="246" width="38" height="22" fill="#fff" stroke="#1a1a1a" stroke-width="1" rx="3"/><text x="455" y="261" font-size="10" fill="#1a1a1a" text-anchor="middle" font-weight="bold">R2</text><rect x="480" y="246" width="38" height="22" fill="#fff" stroke="#1a1a1a" stroke-width="1" rx="3"/><text x="499" y="261" font-size="10" fill="#1a1a1a" text-anchor="middle" font-weight="bold">R3</text><rect x="524" y="246" width="38" height="22" fill="#fff" stroke="#1a1a1a" stroke-width="1" rx="3"/><text x="543" y="261" font-size="10" fill="#1a1a1a" text-anchor="middle" font-weight="bold">R4</text><rect x="436" y="276" width="38" height="22" fill="#fff" stroke="#1a1a1a" stroke-width="1" rx="3"/><text x="455" y="291" font-size="10" fill="#1a1a1a" text-anchor="middle" font-weight="bold">R5</text><rect x="480" y="276" width="38" height="22" fill="#fff" stroke="#1a1a1a" stroke-width="1" rx="3"/><text x="499" y="291" font-size="10" fill="#1a1a1a" text-anchor="middle" font-weight="bold">R6</text><rect x="524" y="276" width="38" height="22" fill="#fff" stroke="#1a1a1a" stroke-width="1" rx="3"/><text x="543" y="291" font-size="10" fill="#1a1a1a" text-anchor="middle" font-weight="bold">R7</text><rect x="436" y="306" width="38" height="22" fill="#fff" stroke="#1a1a1a" stroke-width="1" rx="3"/><text x="455" y="321" font-size="10" fill="#1a1a1a" text-anchor="middle" font-weight="bold">R11</text><rect x="480" y="306" width="38" height="22" fill="#fff" stroke="#1a1a1a" stroke-width="1" rx="3"/><text x="499" y="321" font-size="10" fill="#1a1a1a" text-anchor="middle" font-weight="bold">R12</text><rect x="524" y="306" width="38" height="22" fill="#fff" stroke="#1a1a1a" stroke-width="1" rx="3"/><text x="543" y="321" font-size="10" fill="#1a1a1a" text-anchor="middle" font-weight="bold">R14</text><rect x="286" y="246" width="38" height="22" fill="#fff" stroke="#1a1a1a" stroke-width="1" rx="3"/><text x="305" y="261" font-size="10" fill="#1a1a1a" text-anchor="middle" font-weight="bold">R8</text><rect x="330" y="246" width="38" height="22" fill="#fff" stroke="#1a1a1a" stroke-width="1" rx="3"/><text x="349" y="261" font-size="10" fill="#1a1a1a" text-anchor="middle" font-weight="bold">R9</text><rect x="286" y="96" width="38" height="22" fill="#fff" stroke="#1a1a1a" stroke-width="1" rx="3"/><text x="305" y="111" font-size="10" fill="#1a1a1a" text-anchor="middle" font-weight="bold">R10</text><rect x="330" y="96" width="38" height="22" fill="#fff" stroke="#1a1a1a" stroke-width="1" rx="3"/><text x="349" y="111" font-size="10" fill="#1a1a1a" text-anchor="middle" font-weight="bold">R13</text><text x="30" y="576" font-size="9.5" fill="#5a6672" text-anchor="start">Severity: green=low, amber=medium, red=high. Risk detail in RISK-REGISTER.html. R1 compliance delay &amp; R10 scope overlap are the standout items.</text></svg>